<?xml version="1.0" encoding="UTF-8"?>
<svg version="1.1" xmlns="http://www.w3.org/2000/svg" width="360" height="360">
<path d="M0 0 C118.8 0 237.6 0 360 0 C360 118.8 360 237.6 360 360 C241.2 360 122.4 360 0 360 C0 241.2 0 122.4 0 0 Z " fill="#000000" transform="translate(0,0)"/>
<path d="M0 0 C1.02710083 -0.00335861 2.05420166 -0.00671722 3.11242676 -0.01017761 C6.49895448 -0.01965351 9.88543251 -0.02162954 13.27197266 -0.02270508 C15.64262919 -0.02592174 18.01328553 -0.02928612 20.38394165 -0.03279114 C25.35524963 -0.03877527 30.32654024 -0.04063195 35.29785156 -0.04003906 C41.62632524 -0.03993788 47.95468561 -0.05354734 54.28313255 -0.07081127 C59.18377173 -0.08200937 64.08438429 -0.08395583 68.98503494 -0.08342934 C71.31550102 -0.08459936 73.64596802 -0.08896533 75.97642136 -0.0967617 C94.47696253 -0.1528242 111.75483787 0.6780696 129.56103516 6.14526367 C130.29322266 6.35795898 131.02541016 6.5706543 131.77978516 6.78979492 C151.53256623 13.27640735 168.20852991 28.86758173 177.93603516 46.95776367 C180.13006195 51.71360211 181.79167523 56.5789676 183.31103516 61.58276367 C183.51003418 62.23801025 183.7090332 62.89325684 183.9140625 63.56835938 C187.43811225 76.02353092 187.88554947 88.43679841 187.89697266 101.27416992 C187.90341867 102.99804285 187.91014829 104.72191474 187.91714478 106.44578552 C187.92903597 110.03696224 187.93283371 113.62804331 187.93164062 117.21923828 C187.93143701 121.79050811 187.95881938 126.36115928 187.99318504 130.93228245 C188.01555369 134.48506929 188.01947526 138.03770899 188.01842117 141.59055901 C188.02075906 143.27485233 188.02947858 144.95915086 188.04508591 146.64337349 C188.15977321 160.2865484 187.05299929 171.82752289 177.06494141 182.07885742 C168.98137691 188.75000503 159.21461427 189.30049904 149.15917969 189.25878906 C148.23171432 189.25893509 147.30424896 189.25908112 146.34867859 189.25923157 C143.29704411 189.25853744 140.24547141 189.2507685 137.19384766 189.24291992 C135.07249993 189.24105397 132.95115178 189.2396309 130.82980347 189.2386322 C125.25674237 189.23482102 119.6837075 189.22500269 114.11065674 189.21392822 C108.41964065 189.20368401 102.72862031 189.19912813 97.03759766 189.1940918 C85.878732 189.18337916 74.71988576 189.16631955 63.56103516 189.14526367 C64.1251865 184.83026827 64.75379962 181.12118186 66.56103516 177.14526367 C64.91103516 177.14526367 63.26103516 177.14526367 61.56103516 177.14526367 C61.35478516 177.70213867 61.14853516 178.25901367 60.93603516 178.83276367 C57.64503251 184.36763176 53.00778299 186.66428871 47.10009766 188.56713867 C41.01756248 189.95208514 34.90651913 190.30917145 28.68603516 190.34838867 C27.95843994 190.35408875 27.23084473 190.35978882 26.48120117 190.36566162 C24.9484194 190.37504383 23.41561808 190.38161834 21.8828125 190.38549805 C19.59418252 190.39512425 17.30648355 190.42617888 15.01806641 190.45776367 C-1.07358324 190.57373698 -17.55913507 189.11194752 -29.97021484 177.75463867 C-37.00783078 170.04320845 -36.68018369 161.57896596 -36.73413086 151.72094727 C-36.74560302 150.26446786 -36.76597897 148.8080289 -36.7956543 147.35180664 C-37.00125252 137.24648155 -36.51703117 128.81978232 -30.42333984 120.34057617 C-18.84085259 109.60855127 -3.61721616 109.54981795 11.31103516 109.75463867 C12.94725849 109.7621251 14.58349095 109.76780662 16.21972656 109.77178955 C20.46783445 109.78685747 24.71537054 109.82596919 28.96325684 109.87060547 C33.32129182 109.91197209 37.67942176 109.92988771 42.03759766 109.94995117 C50.54566875 109.99248795 59.05328028 110.06050134 67.56103516 110.14526367 C67.42800008 108.54056331 67.28717962 106.93650709 67.14306641 105.33276367 C67.06548096 104.43944336 66.98789551 103.54612305 66.90795898 102.62573242 C66.47072428 99.49955047 65.59626629 97.55738946 63.56103516 95.14526367 C60.54846703 93.29526241 58.26324885 92.88921516 54.75244141 92.87963867 C53.84042969 92.87706055 52.92841797 92.87448242 51.98876953 92.87182617 C50.57047852 92.88342773 50.57047852 92.88342773 49.12353516 92.89526367 C48.181875 92.8875293 47.24021484 92.87979492 46.27001953 92.87182617 C39.66353647 92.83645549 39.66353647 92.83645549 33.56103516 95.14526367 C30.59949521 98.95295789 30.40022345 101.11013394 29.56103516 106.14526367 C9.76103516 106.14526367 -10.03896484 106.14526367 -30.43896484 106.14526367 C-30.43896484 78.65877719 -30.43896484 78.65877719 -23.43896484 70.14526367 C-13.472658 61.26698159 -2.01059619 58.83085971 11.01123047 58.87060547 C11.8972847 58.86549454 12.78333893 58.86038361 13.69624329 58.8551178 C16.59395307 58.84134152 19.49142173 58.84216985 22.38916016 58.84448242 C24.42641282 58.84058825 26.46366469 58.83625211 28.50091553 58.83149719 C32.76072832 58.82406013 37.0204582 58.82430747 41.28027344 58.82958984 C46.70439359 58.83537368 52.12817106 58.81846727 57.55223465 58.79524517 C61.75791363 58.78041837 65.96351185 58.77964836 70.16921234 58.7827549 C72.1672305 58.78224593 74.16525369 58.77708913 76.16324615 58.76694298 C104.67997153 58.63990884 104.67997153 58.63990884 116.56103516 66.14526367 C117.44791016 66.68151367 118.33478516 67.21776367 119.24853516 67.77026367 C125.23700609 73.92058518 127.68899562 81.80023677 127.67456055 90.18701172 C127.67470657 90.89946045 127.6748526 91.61190918 127.67500305 92.34594727 C127.67430666 94.69965668 127.66652708 97.05328684 127.65869141 99.40698242 C127.65682625 101.03937232 127.65540281 102.67176278 127.65440369 104.30415344 C127.65058617 108.59987942 127.6407624 112.89557157 127.62969971 117.19128418 C127.61946915 121.5750279 127.61490254 125.95877708 127.60986328 130.3425293 C127.59913946 138.94345628 127.5820722 147.54435577 127.56103516 156.14526367 C131.85103516 156.14526367 136.14103516 156.14526367 140.56103516 156.14526367 C140.49786537 147.07778209 140.4222435 138.01063102 140.32532024 128.94344616 C140.28078878 124.73217407 140.2414959 120.52099489 140.21459961 116.30957031 C140.18839324 112.23746337 140.14787173 108.16571735 140.09784889 104.09383583 C140.08129638 102.54833819 140.06971039 101.0027783 140.06342125 99.45720482 C140.00249956 85.84889373 138.68402288 73.05047634 129.21337891 62.53979492 C117.23670052 50.87330389 103.23914866 47.81435538 86.95581055 47.88647461 C85.95910843 47.88296997 84.96240631 47.87946533 83.9355011 47.87585449 C80.67649136 47.86713066 77.41770293 47.87285356 74.15869141 47.87963867 C71.87145446 47.87828923 69.58421779 47.87634638 67.29698181 47.87384033 C62.51688897 47.87090162 57.73687118 47.87514591 52.95678711 47.88452148 C46.856606 47.89590868 40.75660107 47.88935308 34.65642643 47.87737656 C29.93699335 47.87011853 25.21760142 47.87246405 20.49816704 47.87763214 C18.25009579 47.87895808 16.00202069 47.87735828 13.75395393 47.87267303 C-6.14214882 47.84030251 -22.97185166 48.04810556 -38.24365234 62.65698242 C-48.58444197 74.37777067 -48.75402685 87.67661215 -48.73974609 102.44604492 C-48.74364114 104.13079431 -48.74797746 105.81554273 -48.75273132 107.50028992 C-48.76016418 111.02122183 -48.75992404 114.54205343 -48.75463867 118.06298828 C-48.74885346 122.54459872 -48.76576637 127.0257946 -48.78898335 131.50733662 C-48.80381476 134.98463792 -48.80457959 138.46184159 -48.80147362 141.93916893 C-48.8019823 143.58995572 -48.80713348 145.24074864 -48.81728554 146.89150429 C-48.90159435 162.51772457 -47.12372167 175.8463396 -36.31396484 187.89526367 C-23.66095421 199.81558326 -7.13279793 200.28912418 9.14086914 200.3347168 C10.71676347 200.34266914 12.29265565 200.35105787 13.86854553 200.35984802 C17.24824328 200.37783143 20.62793652 200.39287234 24.007658 200.40562439 C29.34758939 200.42591166 34.6874674 200.45355044 40.02735901 200.4822998 C52.31608502 200.5473543 64.60485012 200.60300676 76.89362335 200.65828705 C88.17811741 200.70910832 99.46259177 200.76190845 110.74703652 200.82281256 C116.06053255 200.85120868 121.37402199 200.87478562 126.68755615 200.89473724 C129.98173745 200.90808147 133.27588788 200.92549446 136.57004356 200.94404793 C138.10316441 200.95183133 139.63629508 200.95788884 141.16942978 200.96214104 C143.2531379 200.96814884 145.33672459 200.98017706 147.4203949 200.99377441 C148.58897758 200.99892815 149.75756025 201.00408188 150.96155453 201.00939178 C153.56103516 201.14526367 153.56103516 201.14526367 154.56103516 202.14526367 C154.65908366 203.55201587 154.68901702 204.96361503 154.69042969 206.3737793 C154.69358185 207.27140991 154.69673401 208.16904053 154.69998169 209.09387207 C154.69694534 210.55790466 154.69694534 210.55790466 154.69384766 212.05151367 C154.69480438 213.04654907 154.69576111 214.04158447 154.69674683 215.06677246 C154.69742875 217.17513085 154.69557359 219.28349132 154.69140625 221.3918457 C154.68605819 224.63131394 154.69135083 227.87064353 154.69775391 231.11010742 C154.69709313 233.15307648 154.69581197 235.19604545 154.69384766 237.23901367 C154.69587189 238.2150354 154.69789612 239.19105713 154.69998169 240.19665527 C154.69525345 241.5431012 154.69525345 241.5431012 154.69042969 242.91674805 C154.68963409 243.7109314 154.6888385 244.50511475 154.6880188 245.32336426 C154.56103516 247.14526367 154.56103516 247.14526367 153.56103516 248.14526367 C151.47897868 248.24651317 149.393429 248.27604158 147.30891418 248.27897644 C146.64823509 248.281242 145.987556 248.28350755 145.30685633 248.28584176 C143.0762169 248.2922097 140.84563779 248.29135058 138.61499023 248.29052734 C137.02181418 248.29351744 135.42863884 248.29691962 133.83546448 248.30070496 C129.49174315 248.30957282 125.1480415 248.31188447 120.80431199 248.31252074 C118.08735527 248.31323065 115.37040358 248.31536402 112.6534481 248.31801796 C103.1643886 248.32728649 93.67534318 248.3313517 84.1862793 248.33056641 C75.36205289 248.32996791 66.53788808 248.34047077 57.71367723 248.35631007 C50.12878471 248.36943597 42.54391217 248.37474806 34.9590084 248.374111 C30.43359099 248.37385712 25.90822807 248.37664559 21.38282204 248.38728905 C17.11387618 248.39705303 12.84503587 248.39699302 8.57608604 248.38977242 C7.01939615 248.38873621 5.4626994 248.39103125 3.90602112 248.39713287 C-19.28599026 248.48205269 -42.55889972 244.44278872 -61.43896484 230.14526367 C-62.19564453 229.6012793 -62.95232422 229.05729492 -63.73193359 228.49682617 C-82.01389334 214.96143889 -91.41962258 194.06309537 -95.43896484 172.14526367 C-96.81041139 162.90412307 -96.62110119 153.54908176 -96.64208984 144.23120117 C-96.64491722 143.37773731 -96.6477446 142.52427345 -96.65065765 141.64494705 C-96.6655747 137.12665761 -96.67485094 132.60839948 -96.67919922 128.09008789 C-96.68466793 123.47104811 -96.70868386 118.85230543 -96.73717117 114.23335838 C-96.75597554 110.63838921 -96.76101255 107.04348904 -96.7625351 103.44847488 C-96.76552299 101.74795537 -96.77341703 100.04743589 -96.78672028 98.34696579 C-96.96632038 73.62290411 -91.46530857 50.26225122 -75.88427734 30.58666992 C-74.43896484 29.14526367 -74.43896484 29.14526367 -72.43896484 29.14526367 C-72.19146484 28.55229492 -71.94396484 27.95932617 -71.68896484 27.34838867 C-70.24927622 24.81093747 -68.78744991 23.60482266 -66.43896484 21.89526367 C-65.73771484 21.37448242 -65.03646484 20.85370117 -64.31396484 20.31713867 C-62.43896484 19.14526367 -62.43896484 19.14526367 -60.43896484 19.14526367 C-59.94396484 17.66026367 -59.94396484 17.66026367 -59.43896484 16.14526367 C-57.16302815 14.69829086 -54.95526762 13.43312879 -52.56396484 12.20776367 C-51.88068115 11.85367432 -51.19739746 11.49958496 -50.4934082 11.13476562 C-39.76772027 5.67443827 -29.24198289 3.05171823 -17.43896484 1.14526367 C-16.42095795 0.97061081 -15.40295105 0.79595795 -14.35409546 0.61601257 C-9.54707003 0.0380237 -4.83674994 -0.00228803 0 0 Z " fill="#FD4002" transform="translate(134.43896484375,55.854736328125)"/>
<path d="M0 0 C0.99787033 -0.00335861 1.99574066 -0.00671722 3.02384949 -0.01017761 C6.30391708 -0.01963198 9.58393332 -0.02162793 12.86401367 -0.02270508 C15.15793376 -0.02592141 17.45185365 -0.02928577 19.74577332 -0.03279114 C24.5479683 -0.03876856 29.35014531 -0.04063245 34.15234375 -0.04003906 C40.28520563 -0.0399375 46.41795158 -0.05358964 52.55078602 -0.07081127 C57.2873334 -0.08196642 62.02385305 -0.08395719 66.76041222 -0.08342934 C69.02047818 -0.08460415 71.28054498 -0.08899775 73.54059792 -0.0967617 C76.7107401 -0.106633 79.8806345 -0.10365552 83.05078125 -0.09765625 C83.97114166 -0.10327576 84.89150208 -0.10889526 85.8397522 -0.11468506 C102.15390238 -0.03680318 115.36284579 4.4037409 126.92260742 16.02026367 C137.07793429 26.90954978 137.01306335 40.49958712 136.91479492 54.55541992 C136.91105835 56.13439249 136.90821442 57.71336741 136.90621948 59.29234314 C136.89863372 63.42034462 136.87902953 67.54820227 136.85681152 71.67614746 C136.8362433 75.89955704 136.82719444 80.12299017 136.81713867 84.34643555 C136.79577814 92.6127845 136.76063809 100.87898955 136.71948242 109.14526367 C132.42948242 109.14526367 128.13948242 109.14526367 123.71948242 109.14526367 C123.71401398 107.8067485 123.71401398 107.8067485 123.70843506 106.44119263 C123.67043605 97.99702165 123.61344896 89.55323223 123.53557968 81.10933113 C123.4962118 76.7690806 123.4639713 72.42902971 123.44848633 68.08862305 C123.43324878 63.89325791 123.39867917 59.69844201 123.3511734 55.5033226 C123.3364323 53.90955273 123.32844562 52.31570442 123.32759857 50.72186661 C123.31681749 40.59991855 123.08115244 31.42518001 116.34448242 23.27026367 C115.47823242 22.56901367 114.61198242 21.86776367 113.71948242 21.14526367 C112.87385742 20.44401367 112.02823242 19.74276367 111.15698242 19.02026367 C106.25464968 16.346264 101.15440424 15.29369264 95.71948242 14.14526367 C95.01815186 13.97093811 94.31682129 13.79661255 93.59423828 13.61700439 C89.65886652 12.97121908 85.80283034 12.98948574 81.82104492 12.98413086 C80.93411453 12.97916595 80.04718414 12.97420105 79.13337708 12.96908569 C76.20373755 12.95450242 73.27415227 12.94766649 70.34448242 12.94213867 C68.2976888 12.93638165 66.25089518 12.93062399 64.20410156 12.92486572 C59.91023509 12.91436494 55.61638727 12.90851703 51.32250977 12.9050293 C45.84996746 12.89956333 40.3776763 12.87557205 34.9052124 12.84705734 C30.67384144 12.82832477 26.44252951 12.82321962 22.21112061 12.82169342 C20.19552241 12.81868748 18.17992474 12.81072954 16.16436768 12.79750824 C1.21343575 12.70648022 -12.82076897 12.66815759 -25.28051758 22.14526367 C-35.38072381 32.50444955 -33.60770733 45.01624851 -34.28051758 59.14526367 C-14.48051758 59.14526367 5.31948242 59.14526367 25.71948242 59.14526367 C25.71948242 57.16526367 25.71948242 55.18526367 25.71948242 53.14526367 C27.35435785 49.99661469 28.6013199 47.78985148 31.71166992 45.99682617 C36.18692603 44.72980561 40.52760213 44.77666226 45.15698242 44.77026367 C46.55013672 44.73352539 46.55013672 44.73352539 47.97143555 44.69604492 C53.70290948 44.67156888 57.28287228 45.13754928 61.71948242 49.14526367 C63.71569126 52.29923112 63.94177538 54.69813112 63.84448242 58.39526367 C63.82643555 59.28729492 63.80838867 60.17932617 63.78979492 61.09838867 C63.7665918 61.77385742 63.74338867 62.44932617 63.71948242 63.14526367 C62.82793457 63.1489093 61.93638672 63.15255493 61.01782227 63.15631104 C52.54609164 63.19444406 44.07473613 63.25157862 35.60327148 63.32916641 C31.24974228 63.36839293 26.89640783 63.40070133 22.54272461 63.41625977 C18.32788609 63.43159227 14.11358396 63.46632332 9.89898682 63.51357269 C8.30459298 63.52821784 6.71012249 63.53629479 5.11566162 63.53714752 C-8.33487327 63.55155282 -23.06454122 64.01542933 -33.48364258 73.55932617 C-39.29850509 81.92767178 -39.89326331 90.30141844 -39.74707031 100.18701172 C-39.71792113 102.33988738 -39.72653654 104.49031867 -39.73950195 106.64331055 C-39.69603255 116.33503272 -38.56131926 123.3769037 -32.28051758 131.14526367 C-26.81459435 135.65437539 -21.08826104 138.31055267 -14.28051758 140.14526367 C-15.52598163 143.88165583 -16.91456711 144.3328288 -20.28051758 146.14526367 C-19.80614258 146.59901367 -19.33176758 147.05276367 -18.84301758 147.52026367 C-17.28051758 149.14526367 -17.28051758 149.14526367 -16.28051758 151.14526367 C-14.99227302 151.15161158 -14.99227302 151.15161158 -13.67800331 151.15808773 C7.19407815 151.26127515 28.06612514 151.36989486 48.93814659 151.48460293 C59.03158778 151.5399425 69.12503249 151.59342569 79.21850586 151.64257812 C88.01329335 151.68541099 96.80805473 151.73168669 105.60280192 151.78214222 C110.26196069 151.80875041 114.92111427 151.83360365 119.58030319 151.85433769 C123.96164214 151.87388956 128.34293138 151.89802896 132.724226 151.92575455 C134.33593406 151.93513268 135.94765304 151.94280521 137.55937767 151.94868279 C139.75264256 151.95693106 141.94578635 151.97120402 144.13900757 151.98704529 C145.36867941 151.99349784 146.59835125 151.99995039 147.86528587 152.00659847 C150.71948242 152.14526367 150.71948242 152.14526367 152.71948242 153.14526367 C152.38948242 168.98526367 152.05948242 184.82526367 151.71948242 201.14526367 C151.05948242 200.81526367 150.39948242 200.48526367 149.71948242 200.14526367 C149.71948242 185.29526367 149.71948242 170.44526367 149.71948242 155.14526367 C144.9302124 155.12544434 140.14094238 155.105625 135.20654297 155.08520508 C119.37271082 155.01826162 103.53894362 154.94072087 87.7051878 154.85773659 C78.10637175 154.8076876 68.50756392 154.76124398 58.90869141 154.72338867 C50.5389914 154.69037163 42.16935659 154.65048721 33.79972869 154.60247362 C29.37110912 154.5773049 24.94253225 154.55549557 20.5138607 154.54191971 C16.33846348 154.52901149 12.16321347 154.50686428 7.98789787 154.47788048 C6.46221771 154.46887272 4.9365139 154.46313054 3.41080856 154.46105003 C-13.38221258 154.43406899 -28.52044665 152.70497117 -41.08911133 140.53979492 C-49.93405908 130.87499462 -53.42023933 120.61688326 -53.44165039 107.5703125 C-53.4466153 106.83608063 -53.4515802 106.10184875 -53.45669556 105.34536743 C-53.47122617 102.93100016 -53.4781047 100.51669863 -53.48364258 98.10229492 C-53.48646996 97.27201971 -53.48929733 96.4417445 -53.49221039 95.58630943 C-53.50716793 91.19051168 -53.51641846 86.79474645 -53.52075195 82.39892578 C-53.52622454 77.88464971 -53.55023673 73.37067708 -53.57872391 68.85649586 C-53.59745688 65.36208764 -53.60256157 61.8677509 -53.60408783 58.37329674 C-53.60709202 56.71051059 -53.61504391 55.04772502 -53.62827301 53.38498878 C-53.74164093 38.03799574 -51.87565699 25.05890417 -41.03051758 13.39526367 C-29.20106756 2.34749538 -15.58597771 -0.00762424 0 0 Z " fill="#090203" transform="translate(138.280517578125,102.854736328125)"/>
<path d="M0 0 C0.74617584 0.0028299 1.49235168 0.00565979 2.26113892 0.00857544 C4.62478238 0.01969563 6.98803518 0.04478429 9.3515625 0.0703125 C10.96223408 0.08035288 12.57291165 0.08947688 14.18359375 0.09765625 C18.11485187 0.1178996 22.04527421 0.15706213 25.9765625 0.1953125 C25.9765625 9.4353125 25.9765625 18.6753125 25.9765625 28.1953125 C20.94064481 28.26429767 15.90637558 28.32399488 10.87036133 28.36010742 C9.15839066 28.3751659 7.44645839 28.39561705 5.73461914 28.42163086 C3.26959745 28.4581444 0.80508715 28.47506812 -1.66015625 28.48828125 C-2.80263069 28.51150703 -2.80263069 28.51150703 -3.96818542 28.53520203 C-8.51832023 28.53663328 -11.4151916 28.0223266 -15.0234375 25.1953125 C-18.77628737 20.01896785 -18.83732162 14.3497396 -18.0234375 8.1953125 C-16.2750946 4.36240691 -15.24949234 2.72341397 -11.37646484 1.05517578 C-7.52817877 0.06830644 -3.94009095 -0.05706404 0 0 Z " fill="#010002" transform="translate(176.0234375,183.8046875)"/>
<path d="M0 0 C14.05633214 -0.09364371 28.11261556 -0.16381061 42.16919613 -0.20724869 C48.69664792 -0.2280996 55.22388974 -0.25637234 61.7512207 -0.30175781 C68.05359008 -0.34530354 74.35575783 -0.36915588 80.65826607 -0.37950897 C83.05956762 -0.38688459 85.46085847 -0.40128741 87.8620739 -0.42292023 C91.23242691 -0.45206923 94.60195279 -0.45595106 97.97241211 -0.45410156 C99.45272163 -0.47567322 99.45272163 -0.47567322 100.9629364 -0.49768066 C107.48016162 -0.45912723 112.27202916 0.88783095 118 4 C115.50935112 4.68707555 113.62113708 5 111 5 C111.495 6.98 111.495 6.98 112 9 C109.36 9.33 106.72 9.66 104 10 C104 9.34 104 8.68 104 8 C91.69978629 8.08436353 79.39970283 8.17923158 67.09967518 8.28752708 C61.38833357 8.33748211 55.6770104 8.38381238 49.96557617 8.421875 C44.45418091 8.4587376 38.9429401 8.50510051 33.43167686 8.55806351 C31.32856644 8.57660221 29.22542292 8.59171211 27.12226295 8.60334396 C24.17745763 8.62021515 21.23300562 8.64925276 18.28833008 8.68115234 C17.4179863 8.68331253 16.54764252 8.68547272 15.65092468 8.68769836 C11.27714658 8.74826089 8.01702107 9.08981843 4 11 C1.32421875 11.1953125 1.32421875 11.1953125 -1.3125 11.125 C-2.63701172 11.09792969 -2.63701172 11.09792969 -3.98828125 11.0703125 C-4.65214844 11.04710938 -5.31601563 11.02390625 -6 11 C-6.33 10.34 -6.66 9.68 -7 9 C-6.34 8.67 -5.68 8.34 -5 8 C-6.32 7.34 -7.64 6.68 -9 6 C-6.29120665 4.64560332 -3.99066732 4.93498549 -1 5 C-0.67 3.35 -0.34 1.7 0 0 Z " fill="#020002" transform="translate(129,105)"/>
<path d="M0 0 C0.99787033 -0.00335861 1.99574066 -0.00671722 3.02384949 -0.01017761 C6.30391708 -0.01963198 9.58393332 -0.02162793 12.86401367 -0.02270508 C15.15793376 -0.02592141 17.45185365 -0.02928577 19.74577332 -0.03279114 C24.5479683 -0.03876856 29.35014531 -0.04063245 34.15234375 -0.04003906 C40.28520563 -0.0399375 46.41795158 -0.05358964 52.55078602 -0.07081127 C57.2873334 -0.08196642 62.02385305 -0.08395719 66.76041222 -0.08342934 C69.02047818 -0.08460415 71.28054498 -0.08899775 73.54059792 -0.0967617 C76.7107401 -0.106633 79.8806345 -0.10365552 83.05078125 -0.09765625 C83.97114166 -0.10327576 84.89150208 -0.10889526 85.8397522 -0.11468506 C102.28695456 -0.036168 115.31085621 4.48956914 126.98120117 16.12573242 C130.42512259 19.77149539 133.71948242 23.89610758 133.71948242 29.14526367 C133.05948242 29.14526367 132.39948242 29.14526367 131.71948242 29.14526367 C131.71948242 28.15526367 131.71948242 27.16526367 131.71948242 26.14526367 C131.05948242 26.14526367 130.39948242 26.14526367 129.71948242 26.14526367 C129.05948242 27.46526367 128.39948242 28.78526367 127.71948242 30.14526367 C126.7888311 27.53943996 126.57030835 26.50328143 127.65698242 23.89526367 C128.00760742 23.31776367 128.35823242 22.74026367 128.71948242 22.14526367 C128.05948242 22.14526367 127.39948242 22.14526367 126.71948242 22.14526367 C126.30698242 21.21713867 125.89448242 20.28901367 125.46948242 19.33276367 C123.78506456 16.26471686 122.63494159 14.95485902 119.71948242 13.14526367 C119.71948242 14.13526367 119.71948242 15.12526367 119.71948242 16.14526367 C119.05948242 16.14526367 118.39948242 16.14526367 117.71948242 16.14526367 C117.71948242 15.48526367 117.71948242 14.82526367 117.71948242 14.14526367 C116.39948242 14.80526367 115.07948242 15.46526367 113.71948242 16.14526367 C113.71948242 16.80526367 113.71948242 17.46526367 113.71948242 18.14526367 C115.36948242 18.80526367 117.01948242 19.46526367 118.71948242 20.14526367 C118.71948242 21.46526367 118.71948242 22.78526367 118.71948242 24.14526367 C119.64760742 23.40276367 119.64760742 23.40276367 120.59448242 22.64526367 C122.71948242 21.14526367 122.71948242 21.14526367 124.71948242 21.14526367 C125.04948242 22.13526367 125.37948242 23.12526367 125.71948242 24.14526367 C124.72948242 24.47526367 123.73948242 24.80526367 122.71948242 25.14526367 C123.0447995 26.30453369 123.37011658 27.46380371 123.70529175 28.65820312 C124.73653748 32.80236963 124.96100289 36.6552037 124.9465332 40.93823242 C124.94682526 41.67091843 124.94711731 42.40360443 124.94741821 43.15849304 C124.94603883 45.55004241 124.9305443 47.94126958 124.91479492 50.33276367 C124.91105983 52.00284658 124.9082152 53.67293169 124.90621948 55.34301758 C124.89862211 59.71598473 124.87900753 64.08881679 124.85681152 68.46173096 C124.83626871 72.9330462 124.82719981 77.40438349 124.81713867 81.87573242 C124.79575759 90.63230449 124.76166927 99.38876723 124.71948242 108.14526367 C128.34948242 108.14526367 131.97948242 108.14526367 135.71948242 108.14526367 C135.71948242 85.04526367 135.71948242 61.94526367 135.71948242 38.14526367 C136.04948242 38.14526367 136.37948242 38.14526367 136.71948242 38.14526367 C136.71948242 61.57526367 136.71948242 85.00526367 136.71948242 109.14526367 C132.42948242 109.14526367 128.13948242 109.14526367 123.71948242 109.14526367 C123.71401398 107.8067485 123.71401398 107.8067485 123.70843506 106.44119263 C123.67043605 97.99702165 123.61344896 89.55323223 123.53557968 81.10933113 C123.4962118 76.7690806 123.4639713 72.42902971 123.44848633 68.08862305 C123.43324878 63.89325791 123.39867917 59.69844201 123.3511734 55.5033226 C123.3364323 53.90955273 123.32844562 52.31570442 123.32759857 50.72186661 C123.31681749 40.59991855 123.08115244 31.42518001 116.34448242 23.27026367 C115.47823242 22.56901367 114.61198242 21.86776367 113.71948242 21.14526367 C112.87385742 20.44401367 112.02823242 19.74276367 111.15698242 19.02026367 C106.25464968 16.346264 101.15440424 15.29369264 95.71948242 14.14526367 C95.0280867 13.96995621 94.33669098 13.79464874 93.62434387 13.61402893 C89.52111377 12.95187972 85.48895559 13.01477903 81.33935547 13.03173828 C80.40228256 13.03159225 79.46520966 13.03144623 78.4997406 13.03129578 C75.4102037 13.03199103 72.3207275 13.03976535 69.23120117 13.04760742 C67.08600396 13.04947297 64.94080631 13.05089623 62.79560852 13.05189514 C57.15512919 13.0557095 51.51467569 13.06553058 45.87420654 13.07659912 C40.11625518 13.08683647 34.35829964 13.09139774 28.6003418 13.09643555 C17.30671067 13.1071538 6.0130987 13.12421727 -5.28051758 13.14526367 C-4.28051758 11.14526367 -4.28051758 11.14526367 -2.47349167 10.52777958 C-0.32730149 10.15342409 1.63047401 10.02213006 3.80706787 10.02500916 C5.01433281 10.02294716 5.01433281 10.02294716 6.24598694 10.02084351 C7.55689552 10.02623642 7.55689552 10.02623642 8.89428711 10.03173828 C9.82146042 10.03159225 10.74863373 10.03144623 11.7039032 10.03129578 C14.76641179 10.03199206 17.82885946 10.03977118 20.89135742 10.04760742 C23.01556363 10.04947261 25.13977026 10.05089604 27.26397705 10.05189514 C32.85350737 10.05571236 38.44301169 10.0655359 44.03253174 10.07659912 C49.73677214 10.08683031 55.44101674 10.09139643 61.14526367 10.09643555 C72.33668134 10.10715885 83.52807972 10.12422577 94.71948242 10.14526367 C94.71948242 10.80526367 94.71948242 11.46526367 94.71948242 12.14526367 C97.02948242 11.48526367 99.33948242 10.82526367 101.71948242 10.14526367 C101.71948242 9.15526367 101.71948242 8.16526367 101.71948242 7.14526367 C103.36948242 6.81526367 105.01948242 6.48526367 106.71948242 6.14526367 C100.56065849 2.89069576 95.32102543 2.72250237 88.43164062 2.77294922 C87.315383 2.76929855 86.19912537 2.76564789 85.04904175 2.7618866 C81.37262594 2.7538041 77.69665395 2.76737005 74.02026367 2.78198242 C71.46152242 2.78250119 68.90278077 2.78198284 66.34403992 2.7804718 C60.98857158 2.78056142 55.63325809 2.79063074 50.27783203 2.80908203 C44.09008378 2.83027913 37.90252113 2.83375149 31.71474391 2.82752007 C25.75225967 2.82182358 19.78983125 2.82757868 13.82735252 2.83869362 C11.29356334 2.84254633 8.75976856 2.84369354 6.22597694 2.84210777 C2.69025595 2.8417377 -0.84518098 2.8543403 -4.38085938 2.87060547 C-5.43081589 2.86812805 -6.4807724 2.86565063 -7.56254578 2.86309814 C-8.52555603 2.87018295 -9.48856628 2.87726776 -10.48075867 2.88456726 C-11.73366463 2.88764657 -11.73366463 2.88764657 -13.01188183 2.89078808 C-15.50954485 3.17095394 -17.08797452 3.95591196 -19.28051758 5.14526367 C-21.85864258 5.55932617 -21.85864258 5.55932617 -24.53051758 5.77026367 C-25.42254883 5.8450293 -26.31458008 5.91979492 -27.23364258 5.99682617 C-27.90911133 6.04581055 -28.58458008 6.09479492 -29.28051758 6.14526367 C-27.15484399 4.01959008 -25.95660176 3.51483175 -23.15551758 2.58276367 C-22.43106445 2.33397461 -21.70661133 2.08518555 -20.96020508 1.82885742 C-14.03938009 0.06334084 -7.09631386 -0.00347132 0 0 Z " fill="#300602" transform="translate(138.280517578125,102.854736328125)"/>
<path d="M0 0 C0.66 0 1.32 0 2 0 C2 1.65 2 3.3 2 5 C2.66 5 3.32 5 4 5 C4.28875 5.639375 4.5775 6.27875 4.875 6.9375 C5.82823451 9.15206079 5.82823451 9.15206079 8 10 C7.979375 9.05125 7.95875 8.1025 7.9375 7.125 C8 4 8 4 9 2 C11 2 11 2 12.625 3.375 C14 5 14 5 14 7 C14.58652344 7.27070313 15.17304687 7.54140625 15.77734375 7.8203125 C17.974703 8.98657347 19.65673694 10.2861781 21.5625 11.875 C26.26224882 15.49975901 31.38120379 17.24412618 37 19 C35.75453595 22.73639216 34.36595047 23.18756513 31 25 C31.474375 25.45375 31.94875 25.9075 32.4375 26.375 C34 28 34 28 35 30 C36.28824456 30.00634791 36.28824456 30.00634791 37.60251427 30.01282406 C58.47459573 30.11601148 79.34664272 30.22463119 100.21866417 30.33933926 C110.31210535 30.39467882 120.40555007 30.44816202 130.49902344 30.49731445 C139.29381093 30.54014731 148.08857231 30.58642302 156.8833195 30.63687855 C161.54247827 30.66348673 166.20163184 30.68833998 170.86082077 30.70907402 C175.24215972 30.72862589 179.62344895 30.75276529 184.00474358 30.78049088 C185.61645164 30.789869 187.22817062 30.79754154 188.83989525 30.80341911 C191.03316014 30.81166739 193.22630393 30.82594035 195.41952515 30.84178162 C197.26403291 30.85146044 197.26403291 30.85146044 199.14580345 30.8613348 C202 31 202 31 204 32 C203.67 47.84 203.34 63.68 203 80 C202.34 79.67 201.68 79.34 201 79 C201 64.15 201 49.3 201 34 C196.21072998 33.98018066 191.42145996 33.96036133 186.48706055 33.93994141 C170.6532284 33.87299795 154.8194612 33.79545719 138.98570538 33.71247292 C129.38688933 33.66242392 119.7880815 33.6159803 110.18920898 33.578125 C101.81950898 33.54510796 93.44987417 33.50522354 85.08024627 33.45720994 C80.65162669 33.43204123 76.22304983 33.4102319 71.79437828 33.39665604 C67.61898106 33.38374782 63.44373105 33.36160061 59.26841545 33.33261681 C57.74273529 33.32360905 56.21703147 33.31786687 54.69132614 33.31578636 C37.89035198 33.28879254 22.78494511 31.55059014 10.1953125 19.40625 C5.3415616 14.08612446 0 7.49940044 0 0 Z " fill="#1C0202" transform="translate(87,224)"/>
<path d="M0 0 C1.30324219 0.61488281 1.30324219 0.61488281 2.6328125 1.2421875 C4.36144531 2.05042969 4.36144531 2.05042969 6.125 2.875 C7.26195313 3.40867188 8.39890625 3.94234375 9.5703125 4.4921875 C20.42523355 9.26439653 30.92949743 9.15681332 42.57983398 9.18945312 C44.15572832 9.19740547 45.7316205 9.2057942 47.30751038 9.21458435 C50.68720812 9.23256776 54.06690136 9.24760867 57.44662285 9.26036072 C62.78655423 9.28064799 68.12643225 9.30828677 73.46632385 9.33703613 C85.75504987 9.40209063 98.04381496 9.45774308 110.3325882 9.51302338 C121.61708225 9.56384465 132.90155661 9.61664477 144.18600136 9.67754889 C149.4994974 9.70594501 154.81298683 9.72952195 160.12652099 9.74947357 C163.42070229 9.76281779 166.71485272 9.78023078 170.00900841 9.79878426 C171.54212925 9.80656766 173.07525992 9.81262517 174.60839462 9.81687737 C176.69210275 9.82288516 178.77568944 9.83491339 180.85935974 9.84851074 C182.61223376 9.85624134 182.61223376 9.85624134 184.40051937 9.86412811 C187 10 187 10 188 11 C188.09804851 12.4067522 188.12798186 13.81835136 188.12939453 15.22851562 C188.13254669 16.12614624 188.13569885 17.02377686 188.13894653 17.9486084 C188.13591019 19.41264099 188.13591019 19.41264099 188.1328125 20.90625 C188.13376923 21.9012854 188.13472595 22.8963208 188.13571167 23.92150879 C188.1363936 26.02986718 188.13453844 28.13822765 188.13037109 30.24658203 C188.12502303 33.48605027 188.13031567 36.72537985 188.13671875 39.96484375 C188.13605797 42.00781281 188.13477681 44.05078178 188.1328125 46.09375 C188.13483673 47.06977173 188.13686096 48.04579346 188.13894653 49.0513916 C188.13421829 50.39783752 188.13421829 50.39783752 188.12939453 51.77148438 C188.12859894 52.56566772 188.12780334 53.35985107 188.12698364 54.17810059 C188 56 188 56 187 57 C184.88639683 57.09688731 182.7694933 57.12186842 180.65367126 57.12025452 C179.98311425 57.12110894 179.31255724 57.12196337 178.62168032 57.12284368 C176.35835602 57.12450037 174.09510466 57.11897407 171.83178711 57.11352539 C170.21589662 57.11324353 168.60000601 57.11340122 166.9841156 57.1139679 C162.5834776 57.11425593 158.18286661 57.10835829 153.78223491 57.10139394 C149.1884479 57.09516134 144.59466034 57.09455668 140.00086975 57.09336853 C131.29565229 57.09025494 122.59044732 57.08204117 113.88523537 57.07201904 C103.97730082 57.06085877 94.06936569 57.05534767 84.16142642 57.05032361 C63.7742773 57.03985858 43.38713943 57.0222586 23 57 C23 56.67 23 56.34 23 56 C76.79 56 130.58 56 186 56 C186 41.48 186 26.96 186 12 C131.88 12 77.76 12 22 12 C22 11.34 22 10.68 22 10 C20.4221875 9.9071875 20.4221875 9.9071875 18.8125 9.8125 C12.64161255 9.03558971 6.45286121 6.97064833 1 4 C0.12109375 1.83203125 0.12109375 1.83203125 0 0 Z " fill="#D54B22" transform="translate(101,247)"/>
<path d="M0 0 C3.96 0 7.92 0 12 0 C11.67 0.66 11.34 1.32 11 2 C60.5 2.495 60.5 2.495 111 3 C111 3.66 111 4.32 111 5 C112.11375 4.896875 113.2275 4.79375 114.375 4.6875 C119.89430448 4.6578794 124.42917289 7.05970186 129 10 C129.33 10.66 129.66 11.32 130 12 C128.625 11.54166667 127.25 11.08333333 125.875 10.625 C124.63556641 10.21507813 124.63556641 10.21507813 123.37109375 9.796875 C121.55003126 9.184854 119.74083053 8.53744795 117.9375 7.875 C111.00264471 5.80929842 103.90931298 5.85122106 96.73535156 5.85473633 C95.73908752 5.85137772 94.74282349 5.8480191 93.71636963 5.84455872 C90.44110854 5.83510357 87.16589887 5.83310829 83.890625 5.83203125 C81.59910054 5.82881471 79.30757628 5.82545034 77.01605225 5.82194519 C72.21805343 5.81596738 67.42007259 5.81410389 62.62207031 5.81469727 C56.49827488 5.81479877 50.37459571 5.80115277 44.25082779 5.78392506 C39.51852904 5.77276217 34.78625801 5.77077938 30.05394745 5.77130699 C27.79749908 5.7701331 25.54104986 5.7657448 23.28461456 5.75797462 C7.03435877 5.62689211 7.03435877 5.62689211 -9 8 C-10.66608456 8.33623075 -12.33259789 8.67036522 -14 9 C-10.83200259 4.86782946 -7.83689772 4.30521096 -2.92578125 3.58984375 C-2.29027344 3.39519531 -1.65476562 3.20054688 -1 3 C-0.67 2.01 -0.34 1.02 0 0 Z " fill="#DA4D2D" transform="translate(125,98)"/>
<path d="M0 0 C2.52303331 2.22251552 3.56848189 4.00452719 4.53515625 7.2109375 C4.78716797 8.04496094 5.03917969 8.87898438 5.29882812 9.73828125 C5.55083984 10.60839844 5.80285156 11.47851562 6.0625 12.375 C6.31837891 13.20644531 6.57425781 14.03789063 6.83789062 14.89453125 C10.68844256 27.90127994 11.32396866 40.67833122 11.3359375 54.12890625 C11.34238352 55.85277918 11.34911313 57.57665107 11.35610962 59.30052185 C11.36800082 62.89169856 11.37179855 66.48277964 11.37060547 70.07397461 C11.37040186 74.64524444 11.39778423 79.21589561 11.43214989 83.78701878 C11.45451853 87.33980562 11.4584401 90.89244532 11.45738602 94.44529533 C11.4597239 96.12958866 11.46844342 97.81388718 11.48405075 99.49810982 C11.58450928 111.448633 11.33524312 123.48904318 2.5625 132.6875 C1.82128906 133.49574219 1.08007812 134.30398437 0.31640625 135.13671875 C-2.19869283 137.15982543 -3.82524884 137.6696467 -7 138 C-7 137.34 -7 136.68 -7 136 C-5.68 136 -4.36 136 -3 136 C-2.505 134.02 -2.505 134.02 -2 132 C-1.34 132 -0.68 132 0 132 C0 131.34 0 130.68 0 130 C1.485 129.01 1.485 129.01 3 128 C3.73606499 124.43230448 3.73606499 124.43230448 4 121 C5.32 121 6.64 121 8 121 C8 89.32 8 57.64 8 25 C7.34 25 6.68 25 6 25 C5.90203125 24.32195312 5.8040625 23.64390625 5.703125 22.9453125 C4.74083007 16.9558561 3.30208431 11.72396051 0.8046875 6.19140625 C0 4 0 4 0 0 Z " fill="#D33F16" transform="translate(311,103)"/>
<path d="M0 0 C0.88605423 -0.00511093 1.77210846 -0.01022186 2.68501282 -0.01548767 C5.58272261 -0.02926395 8.48019126 -0.02843562 11.37792969 -0.02612305 C13.41518235 -0.03001722 15.45243422 -0.03435336 17.48968506 -0.03910828 C21.74949785 -0.04654533 26.00922773 -0.046298 30.26904297 -0.04101562 C35.69316312 -0.03523179 41.11694059 -0.0521382 46.54100418 -0.0753603 C50.74668316 -0.09018709 54.95228138 -0.09095711 59.15798187 -0.08785057 C61.15600003 -0.08835954 63.15402322 -0.09351634 65.15201569 -0.10366249 C98.32515543 -0.25143967 98.32515543 -0.25143967 110.54980469 11.2746582 C112.42480469 13.8996582 112.42480469 13.8996582 113.54980469 16.2746582 C113.21980469 16.9346582 112.88980469 17.5946582 112.54980469 18.2746582 C109.54980469 14.5246582 109.54980469 14.5246582 109.54980469 12.2746582 C108.97488281 11.9962207 108.39996094 11.7177832 107.80761719 11.4309082 C105.54980469 10.2746582 105.54980469 10.2746582 103.54199219 9.0559082 C102.84332031 8.6330957 102.14464844 8.2102832 101.42480469 7.7746582 C100.74160156 7.3518457 100.05839844 6.9290332 99.35449219 6.4934082 C92.09545286 3.33906242 84.2983032 2.97785513 76.48535156 3 C75.53435074 2.99488907 74.58334991 2.98977814 73.60353088 2.98451233 C70.49180632 2.97072787 67.38030596 2.97156433 64.26855469 2.97387695 C62.08719807 2.96998459 59.90584221 2.96564881 57.7244873 2.96089172 C53.1654209 2.95345398 48.60643197 2.95370352 44.04736328 2.95898438 C38.22378155 2.96478303 32.40051746 2.94782629 26.57698822 2.9246397 C22.07637702 2.90986526 17.57584173 2.9090356 13.07521057 2.91214943 C10.9287503 2.91163833 8.78228555 2.90644052 6.635849 2.89633751 C3.62844517 2.88391498 0.62165284 2.89079908 -2.38574219 2.90234375 C-3.25980209 2.89470001 -4.133862 2.88705627 -5.03440857 2.87918091 C-13.01622069 2.94644893 -20.54944352 4.72167804 -27.38769531 8.9621582 C-31.1463605 11.2746582 -31.1463605 11.2746582 -34.45019531 11.2746582 C-23.86849849 2.78181582 -13.42345934 -0.04097164 0 0 Z " fill="#D04B23" transform="translate(145.4501953125,114.725341796875)"/>
<path d="M0 0 C0 3 0 3 -1.4609375 4.53515625 C-2.40839844 5.29119141 -2.40839844 5.29119141 -3.375 6.0625 C-5.35131693 7.66063282 -7.19993981 9.19993981 -9 11 C-12.125 10.625 -12.125 10.625 -15 10 C-15 10.66 -15 11.32 -15 12 C-14.01 12 -13.02 12 -12 12 C-12 12.66 -12 13.32 -12 14 C-14.64 14 -17.28 14 -20 14 C-20.495 13.01 -20.495 13.01 -21 12 C-51.36 11.67 -81.72 11.34 -113 11 C-113.33 10.34 -113.66 9.68 -114 9 C-112.82981827 8.99191315 -111.65963654 8.98382629 -110.45399475 8.97549438 C-99.40487815 8.89787703 -88.35588232 8.81009867 -77.30692387 8.71247292 C-71.62708523 8.66261117 -65.94726428 8.61628035 -60.26733398 8.578125 C-54.78185723 8.54114423 -49.2965322 8.49474984 -43.81118584 8.44193649 C-41.72254547 8.42346039 -39.63387266 8.40832763 -37.54518318 8.39665604 C-34.61077594 8.37967711 -31.67671109 8.35061461 -28.74243164 8.31884766 C-27.88646896 8.31668747 -27.03050629 8.31452728 -26.14860535 8.31230164 C-19.04930891 8.2146655 -11.91634491 7.38167213 -5.5625 4 C-4.92441406 3.67 -4.28632813 3.34 -3.62890625 3 C-1.82351715 1.97862539 -1.82351715 1.97862539 0 0 Z " fill="#280100" transform="translate(312,236)"/>
<path d="M0 0 C0.83541824 0.00045822 1.67083649 0.00091644 2.53157043 0.00138855 C4.29246445 0.00440373 6.05335598 0.01226803 7.81420898 0.0246582 C10.52011471 0.0429727 13.22567925 0.0451674 15.93164062 0.04492188 C17.64193006 0.04983509 19.35221717 0.05566255 21.0625 0.0625 C21.87599411 0.06361282 22.68948822 0.06472565 23.52763367 0.06587219 C29.21596451 0.11440201 29.21596451 0.11440201 30.33203125 1.23046875 C30.41986667 3.44902139 30.43897734 5.67035371 30.4296875 7.890625 C30.42718994 9.1062915 30.42469238 10.32195801 30.42211914 11.57446289 C30.41301514 13.13156982 30.40391113 14.68867676 30.39453125 16.29296875 C30.37390625 21.22234375 30.35328125 26.15171875 30.33203125 31.23046875 C11.52203125 31.72546875 11.52203125 31.72546875 -7.66796875 32.23046875 C-7.66796875 31.57046875 -7.66796875 30.91046875 -7.66796875 30.23046875 C-8.32796875 30.23046875 -8.98796875 30.23046875 -9.66796875 30.23046875 C-9.99796875 30.89046875 -10.32796875 31.55046875 -10.66796875 32.23046875 C-11.32796875 31.57046875 -11.98796875 30.91046875 -12.66796875 30.23046875 C-12.66796875 29.24046875 -12.66796875 28.25046875 -12.66796875 27.23046875 C-13.32796875 26.90046875 -13.98796875 26.57046875 -14.66796875 26.23046875 C-15.38956299 24.58683741 -16.06148296 22.91996489 -16.66796875 21.23046875 C-17.98796875 22.55046875 -19.30796875 23.87046875 -20.66796875 25.23046875 C-20.66796875 22.59046875 -20.66796875 19.95046875 -20.66796875 17.23046875 C-20.00796875 17.23046875 -19.34796875 17.23046875 -18.66796875 17.23046875 C-18.39533203 16.23466797 -18.39533203 16.23466797 -18.1171875 15.21875 C-14.8665342 3.79978842 -14.8665342 3.79978842 -11.11206055 1.11987305 C-7.45972094 -0.20921228 -3.83595748 -0.03413748 0 0 Z M-13.60546875 6.23046875 C-15.66134064 12.03528349 -15.44742177 17.93313355 -13.48046875 23.73046875 C-11.36020364 26.65497236 -9.9411685 27.69810478 -6.66796875 29.23046875 C-3.80106855 29.48261715 -1.16349786 29.58155531 1.6953125 29.5234375 C2.48729538 29.51919266 3.27927826 29.51494781 4.09526062 29.51057434 C6.61203752 29.49385038 9.12799849 29.456211 11.64453125 29.41796875 C13.35610818 29.40291374 15.06769774 29.38922676 16.77929688 29.37695312 C20.96410497 29.34652553 25.1471604 29.28779575 29.33203125 29.23046875 C29.33203125 19.99046875 29.33203125 10.75046875 29.33203125 1.23046875 C24.61752327 1.16132605 19.90479792 1.10167789 15.19018555 1.06567383 C13.58888769 1.05065409 11.9876305 1.03023212 10.38647461 1.00415039 C8.07525554 0.96746437 5.76458369 0.9506744 3.453125 0.9375 C2.39175575 0.91427422 2.39175575 0.91427422 1.3089447 0.89057922 C-4.48093743 0.88865039 -9.4681296 1.95966705 -13.60546875 6.23046875 Z M-12.66796875 32.23046875 C-10.66796875 33.23046875 -10.66796875 33.23046875 -10.66796875 33.23046875 Z " fill="#E04214" transform="translate(172.66796875,182.76953125)"/>
<path d="M0 0 C1.0901642 3.88161546 0.88915344 7.02568184 0.5703125 11.06640625 C-0.34670634 24.76300762 -0.15062774 38.50132413 -0.13037109 52.22143555 C-0.12467925 56.14545171 -0.12806756 60.06940007 -0.13379288 63.99341393 C-0.19202338 83.62943081 -0.19202338 83.62943081 0.3828125 103.25390625 C0.41317596 103.96715561 0.44353943 104.68040497 0.474823 105.41526794 C0.87890347 112.33326443 3.13639461 118.54510767 5.51171875 124.984375 C6 127 6 127 5 130 C-1.80991309 112.75052472 -3.1618396 96.41452532 -3.203125 78.0859375 C-3.20595238 77.23247364 -3.20877975 76.37900978 -3.21169281 75.49968338 C-3.22660986 70.98139394 -3.2358861 66.46313581 -3.24023438 61.94482422 C-3.24570309 57.32578444 -3.26971902 52.70704176 -3.29820633 48.08809471 C-3.3170107 44.49312554 -3.3220477 40.89822537 -3.32357025 37.30321121 C-3.32655815 35.6026917 -3.33445219 33.90217222 -3.34775543 32.20170212 C-3.4283203 21.11100321 -2.45545585 10.82476427 0 0 Z " fill="#D04117" transform="translate(41,122)"/>
<path d="M0 0 C0.33 0.66 0.66 1.32 1 2 C0.54625 2.845625 0.0925 3.69125 -0.375 4.5625 C-2.12659642 8.26780012 -2.50551086 11.11404715 -2.7890625 15.14453125 C-3 17 -3 17 -4 18 C-4 22.95 -4 27.9 -4 33 C14.48 33 32.96 33 52 33 C52.33 30.69 52.66 28.38 53 26 C55.57660691 22.88094953 57.1544104 21.2818632 61 20 C62.9906444 19.85013589 64.98535391 19.75171962 66.98046875 19.68359375 C68.14384766 19.64169922 69.30722656 19.59980469 70.50585938 19.55664062 C71.72080078 19.51732422 72.93574219 19.47800781 74.1875 19.4375 C75.41404297 19.39431641 76.64058594 19.35113281 77.90429688 19.30664062 C80.93608381 19.2004691 83.96795315 19.09842048 87 19 C87.99 20.98 87.99 20.98 89 23 C89.66 23 90.32 23 91 23 C93.02558881 26.34939881 93.21738987 28.86962551 93.125 32.75 C93.10695313 33.73484375 93.08890625 34.7196875 93.0703125 35.734375 C93.04710937 36.48203125 93.02390625 37.2296875 93 38 C92.67 38 92.34 38 92 38 C91.94392578 37.11248047 91.94392578 37.11248047 91.88671875 36.20703125 C91.49180622 31.46033751 91.11705121 27.80972926 88 24 C84.99065424 22.14546472 82.70092069 21.74394796 79.19140625 21.734375 C78.27939453 21.73179687 77.36738281 21.72921875 76.42773438 21.7265625 C75.48220703 21.73429687 74.53667969 21.74203125 73.5625 21.75 C72.62083984 21.74226563 71.67917969 21.73453125 70.70898438 21.7265625 C64.10250131 21.69119181 64.10250131 21.69119181 58 24 C55.03846006 27.80769421 54.83918829 29.96487026 54 35 C34.2 35 14.4 35 -6 35 C-6 8.85714286 -6 8.85714286 0 0 Z " fill="#DA4A1F" transform="translate(110,127)"/>
<path d="M0 0 C0 0.66 0 1.32 0 2 C-2.5 3.5 -2.5 3.5 -5 5 C-5 5.66 -5 6.32 -5 7 C-5.99 7 -6.98 7 -8 7 C-8.20625 7.78375 -8.4125 8.5675 -8.625 9.375 C-9.07875 10.24125 -9.5325 11.1075 -10 12 C-10.969375 12.28875 -11.93875 12.5775 -12.9375 12.875 C-16.21415982 13.71897748 -16.21415982 13.71897748 -17.66015625 16.71484375 C-19.89461308 22.4574491 -19.51279836 28.6178801 -19.5 34.6875 C-19.52835937 35.89083984 -19.55671875 37.09417969 -19.5859375 38.33398438 C-19.60696133 48.06275974 -17.41605391 55.87591913 -12 64 C-8.93443402 64.73343428 -8.93443402 64.73343428 -6 65 C-6 65.99 -6 66.98 -6 68 C-5.34 68 -4.68 68 -4 68 C-4 68.66 -4 69.32 -4 70 C-2.68 70.33 -1.36 70.66 0 71 C0 71.66 0 72.32 0 73 C-7.56958751 71.25317211 -13.82695011 66.28375127 -18 59.8125 C-21.88255575 53.19328169 -21.25439893 46.02524522 -21.29516602 38.57568359 C-21.30663817 37.11920418 -21.32701413 35.66276522 -21.35668945 34.20654297 C-21.56283079 24.07452362 -21.36391131 15.21011847 -14.5625 7.08984375 C-13.2940625 6.02443359 -13.2940625 6.02443359 -12 4.9375 C-11.154375 4.20402344 -10.30875 3.47054687 -9.4375 2.71484375 C-6.11127518 0.3747593 -4.01658142 0 0 0 Z " fill="#D7461E" transform="translate(119,169)"/>
<path d="M0 0 C16.56823015 -0.02338011 33.13645494 -0.04100429 49.70469761 -0.05181217 C57.3979453 -0.05696427 65.09118273 -0.06398625 72.78442383 -0.07543945 C79.49133672 -0.08541949 86.19824217 -0.09186133 92.90516227 -0.09408849 C96.45505471 -0.09538996 100.00492587 -0.09844008 103.55481148 -0.10573006 C107.5216524 -0.1138099 111.48847269 -0.113989 115.45532227 -0.11352539 C116.62704987 -0.11712067 117.79877747 -0.12071594 119.00601196 -0.12442017 C124.44629854 -0.11753784 129.64258139 0.02771068 135 1 C135 1.66 135 2.32 135 3 C134.20092728 2.9297612 133.40185455 2.8595224 132.5785675 2.78715515 C120.23687304 1.82534824 107.91639094 1.83604045 95.54296875 1.83203125 C93.18614177 1.82880959 90.82931499 1.82544487 88.4724884 1.82194519 C83.55318743 1.81598915 78.63390393 1.8141017 73.71459961 1.81469727 C67.45819844 1.81479882 61.2019109 1.80113714 54.94553661 1.78392506 C50.08347575 1.77272626 45.22144171 1.77078044 40.35936928 1.77130699 C38.05484945 1.77013908 35.75032865 1.7657855 33.44582176 1.75797462 C20.14846164 1.71711117 7.17798422 2.15300425 -6 4 C-5.67 3.34 -5.34 2.68 -5 2 C-3.35 2 -1.7 2 0 2 C0 1.34 0 0.68 0 0 Z " fill="#2F0400" transform="translate(112,55)"/>
<path d="M0 0 C0.74617584 0.0028299 1.49235168 0.00565979 2.26113892 0.00857544 C4.62478238 0.01969563 6.98803518 0.04478429 9.3515625 0.0703125 C10.96223408 0.08035288 12.57291165 0.08947688 14.18359375 0.09765625 C18.11485187 0.1178996 22.04527421 0.15706213 25.9765625 0.1953125 C25.9765625 9.4353125 25.9765625 18.6753125 25.9765625 28.1953125 C20.94064481 28.26429767 15.90637558 28.32399488 10.87036133 28.36010742 C9.15839066 28.3751659 7.44645839 28.39561705 5.73461914 28.42163086 C3.26959745 28.4581444 0.80508715 28.47506812 -1.66015625 28.48828125 C-2.80263069 28.51150703 -2.80263069 28.51150703 -3.96818542 28.53520203 C-8.51832023 28.53663328 -11.4151916 28.0223266 -15.0234375 25.1953125 C-18.77628737 20.01896785 -18.83732162 14.3497396 -18.0234375 8.1953125 C-16.2750946 4.36240691 -15.24949234 2.72341397 -11.37646484 1.05517578 C-7.52817877 0.06830644 -3.94009095 -0.05706404 0 0 Z M-15.0234375 5.1953125 C-15.0234375 6.5153125 -15.0234375 7.8353125 -15.0234375 9.1953125 C-15.6834375 9.1953125 -16.3434375 9.1953125 -17.0234375 9.1953125 C-17.40011485 15.89760839 -17.40011485 15.89760839 -15.7734375 22.3203125 C-15.1959375 22.9390625 -14.6184375 23.5578125 -14.0234375 24.1953125 C-12.7034375 24.1953125 -11.3834375 24.1953125 -10.0234375 24.1953125 C-10.0234375 24.8553125 -10.0234375 25.5153125 -10.0234375 26.1953125 C-5.72738018 27.01753804 -1.68377147 27.31302045 2.6875 27.29296875 C3.93144531 27.28974609 5.17539063 27.28652344 6.45703125 27.28320312 C7.74222656 27.27482422 9.02742188 27.26644531 10.3515625 27.2578125 C11.65996094 27.25330078 12.96835938 27.24878906 14.31640625 27.24414062 C17.53650531 27.23238844 20.7565102 27.21595793 23.9765625 27.1953125 C24.96915868 24.21752396 25.10547832 22.23288299 25.109375 19.125 C25.11066406 18.14660156 25.11195313 17.16820312 25.11328125 16.16015625 C25.10748047 14.63068359 25.10748047 14.63068359 25.1015625 13.0703125 C25.10542969 12.04292969 25.10929687 11.01554688 25.11328125 9.95703125 C25.11199219 8.98121094 25.11070312 8.00539062 25.109375 7 C25.10768311 5.65397705 25.10768311 5.65397705 25.10595703 4.28076172 C25.20821128 2.20630781 25.20821128 2.20630781 23.9765625 1.1953125 C19.84771536 0.92708542 15.71493521 0.92387117 11.578125 0.90014648 C9.51231805 0.88310742 7.44818635 0.83927191 5.3828125 0.79492188 C-2.22434998 0.70743951 -8.40750512 1.18060319 -15.0234375 5.1953125 Z " fill="#2C0200" transform="translate(176.0234375,183.8046875)"/>
<path d="M0 0 C2.97 0.495 2.97 0.495 6 1 C6 1.99 6 2.98 6 4 C6.66 4 7.32 4 8 4 C8 4.66 8 5.32 8 6 C8.66 6 9.32 6 10 6 C10 6.66 10 7.32 10 8 C10.66 8 11.32 8 12 8 C12 8.66 12 9.32 12 10 C12.66 10 13.32 10 14 10 C14.33 11.65 14.66 13.3 15 15 C15.66 15 16.32 15 17 15 C21.38114986 24.23150904 21.52892739 32.85862954 21.390625 42.82421875 C21.38314803 44.42274766 21.377462 46.02128585 21.37347412 47.61982727 C21.35833209 51.79074207 21.31915199 55.96108376 21.2746582 60.1317749 C21.23345596 64.40222424 21.21541029 68.6727678 21.1953125 72.94335938 C21.15264403 81.29583348 21.08453511 89.64784509 21 98 C21.66 98 22.32 98 23 98 C23 99.32 23 100.64 23 102 C19.4513865 104.36574234 18.4235475 104.10865265 14.3125 103.625 C13.31863281 103.51414062 12.32476562 103.40328125 11.30078125 103.2890625 C10.54152344 103.19367188 9.78226562 103.09828125 9 103 C9 102.67 9 102.34 9 102 C12.63 102 16.26 102 20 102 C19.93851108 92.93252202 19.86120818 83.86535135 19.76428509 74.79818249 C19.71975363 70.58691039 19.68046074 66.37573122 19.65356445 62.16430664 C19.62735808 58.0921997 19.58683658 54.02045368 19.53681374 49.94857216 C19.52026123 48.40307452 19.50867523 46.85751463 19.50238609 45.31194115 C19.44179662 31.77783709 18.33245057 18.27039881 8.23046875 8.25390625 C6.26541409 6.44423835 4.2612717 4.70713879 2.23046875 2.96875 C1.49441406 2.3190625 0.75835937 1.669375 0 1 C0 0.67 0 0.34 0 0 Z " fill="#DE4C29" transform="translate(255,110)"/>
<path d="M0 0 C2.07167641 4.14335282 2.27376491 6.87619565 2.22705078 11.33886719 C2.22734283 12.07096909 2.22763489 12.80307098 2.22793579 13.55735779 C2.22654547 15.97065189 2.21099848 18.38363501 2.1953125 20.796875 C2.19158131 22.47267488 2.18873484 24.14847694 2.18673706 25.82427979 C2.17910897 30.23018439 2.15946756 34.63595667 2.1373291 39.04180908 C2.11685293 43.53957326 2.10773155 48.03735887 2.09765625 52.53515625 C2.07622089 61.3568289 2.04209487 70.17840344 2 79 C-1.63 79 -5.26 79 -9 79 C-9 56.89 -9 34.78 -9 12 C-8.67 12 -8.34 12 -8 12 C-7.98969254 12.79957626 -7.97938507 13.59915253 -7.96876526 14.42295837 C-7.87095918 21.94267296 -7.76846935 29.46230193 -7.66066074 36.98187923 C-7.60539645 40.8481601 -7.551971 44.71444848 -7.50268555 48.58081055 C-7.4550935 52.30910087 -7.40275285 56.03729652 -7.34705925 59.76547432 C-7.32661222 61.19086933 -7.30790309 62.61629032 -7.29092598 64.04173088 C-7.26693404 66.03170541 -7.23629864 68.02159655 -7.20532227 70.01147461 C-7.18977798 71.14620712 -7.1742337 72.28093964 -7.15821838 73.45005798 C-7.28649473 75.93415838 -7.28649473 75.93415838 -6 77 C-4.02 77 -2.04 77 0 77 C0 51.59 0 26.18 0 0 Z " fill="#200100" transform="translate(272,132)"/>
<path d="M0 0 C0.66 0 1.32 0 2 0 C0.50558576 4.68702647 -1.08903418 9.27763111 -3 13.8125 C-7.49754963 24.89267016 -9.16668638 36.19798446 -9.11352539 48.078125 C-9.11374443 49.38197899 -9.11374443 49.38197899 -9.1139679 50.71217346 C-9.11327651 53.55814187 -9.10552069 56.40404316 -9.09765625 59.25 C-9.09578932 61.23396774 -9.09436671 63.21793593 -9.09336853 65.2019043 C-9.08956504 70.40339448 -9.07975342 75.60485638 -9.06866455 80.80633545 C-9.05840366 86.12218849 -9.05386091 91.43804614 -9.04882812 96.75390625 C-9.03812908 107.1692832 -9.02107889 117.58463924 -9 128 C-11.52427499 124.21358751 -11.28130502 121.20473896 -11.25878906 116.81933594 C-11.2622937 115.98467804 -11.26579834 115.15002014 -11.26940918 114.29006958 C-11.27823229 111.52142077 -11.27236893 108.75302659 -11.265625 105.984375 C-11.26697301 104.0516149 -11.26891467 102.11885513 -11.27142334 100.18609619 C-11.27437664 96.12403147 -11.27007598 92.06205453 -11.26074219 88 C-11.24943883 82.83254737 -11.25584736 77.6653046 -11.26788712 72.49785995 C-11.27517862 68.49801102 -11.27278311 64.49821022 -11.26763153 60.49835968 C-11.26631031 58.59607162 -11.2678883 56.69377898 -11.27259064 54.79149628 C-11.29400525 43.67712722 -10.83832887 32.9772998 -9 22 C-8.34 22 -7.68 22 -7 22 C-6.896875 21.05125 -6.79375 20.1025 -6.6875 19.125 C-5.73792229 12.54482773 -4.10029841 5.34821532 0 0 Z " fill="#290200" transform="translate(48,99)"/>
<path d="M0 0 C1.65 0 3.3 0 5 0 C5 0.66 5 1.32 5 2 C-4.7970952 8.15817413 -17.84911822 7.34846565 -29.05541992 7.31567383 C-31.29981348 7.31251784 -33.5428777 7.33606243 -35.78710938 7.36132812 C-45.83581164 7.40295558 -55.2004197 6.19698793 -65 4 C-65 3.67 -65 3.34 -65 3 C-63.82308594 3.0721875 -62.64617187 3.144375 -61.43359375 3.21875 C-40.90802317 4.40478441 -20.52211036 4.13860314 0 3 C0 2.01 0 1.02 0 0 Z " fill="#C03A18" transform="translate(185,239)"/>
<path d="M0 0 C0.33 0 0.66 0 1 0 C1.00586624 0.9004303 1.01173248 1.8008606 1.01777649 2.72857666 C1.07594691 11.26037232 1.14816088 19.79191295 1.23571491 28.32345963 C1.28023183 32.7084592 1.31952777 37.09336984 1.34643555 41.47851562 C1.3726566 45.71919921 1.41318803 49.95953708 1.46318626 54.20000458 C1.47972899 55.80887261 1.49132096 57.41780026 1.49761391 59.02674103 C1.57397851 76.77451903 4.83341337 89.67469083 17 103 C14.69 102.67 12.38 102.34 10 102 C10 101.34 10 100.68 10 100 C9.34 100 8.68 100 8 100 C7.731875 98.741875 7.46375 97.48375 7.1875 96.1875 C6.36748101 92.82483218 5.50039335 91.3867391 3 89 C2.8125 86.3125 2.8125 86.3125 3 84 C1.515 84.495 1.515 84.495 0 85 C-1.56105023 81.87789954 -1.07934892 78.57613793 -1.02172852 75.15380859 C-1.01212097 74.34397018 -1.00251343 73.53413177 -0.99261475 72.69975281 C-0.95956414 70.01589427 -0.91925496 67.33219544 -0.87890625 64.6484375 C-0.85461105 62.79042122 -0.8307672 60.93239899 -0.80735779 59.07437134 C-0.7444571 54.17852002 -0.67540743 49.28277377 -0.60510254 44.38702393 C-0.53447309 39.39348139 -0.4696239 34.39986422 -0.40429688 29.40625 C-0.27520741 19.60408464 -0.13962571 9.80202054 0 0 Z " fill="#D84B25" transform="translate(84,144)"/>
<path d="M0 0 C0.66 0 1.32 0 2 0 C9.54645097 15.20811493 9.31551063 31.23599248 9.30078125 47.83203125 C9.30467886 49.68527826 9.30901568 51.53852439 9.31376648 53.39176941 C9.32115848 57.23817881 9.32098457 61.08449624 9.31567383 64.9309082 C9.30982207 69.86270892 9.32697981 74.79414101 9.3500185 79.72588062 C9.3647123 83.53564147 9.36563465 87.34531189 9.36250877 91.15509605 C9.36302201 92.97520376 9.36826029 94.79531652 9.37832069 96.6153965 C9.39061254 99.14464653 9.38394287 101.67315509 9.37231445 104.20239258 C9.37995819 104.95193207 9.38760193 105.70147156 9.39547729 106.47372437 C9.34369146 111.55159917 9.34369146 111.55159917 7.47673035 113.98735046 C6.98940933 114.32152481 6.50208832 114.65569916 6 115 C6.16167664 114.33071472 6.32335327 113.66142944 6.4899292 112.97186279 C7.09452543 109.44925958 7.15539595 106.01193256 7.16113281 102.45019531 C7.16609772 101.70624008 7.17106262 100.96228485 7.17617798 100.19578552 C7.19075022 97.7398891 7.19759784 95.28405753 7.203125 92.828125 C7.20595238 91.98235649 7.20877975 91.13658798 7.21169281 90.26519012 C7.22667526 85.77819 7.23590722 81.29122187 7.24023438 76.80419922 C7.24567865 72.21537903 7.26962273 67.62686165 7.29820633 63.03813553 C7.3170412 59.47228207 7.32204952 55.90649801 7.32357025 52.34059906 C7.32655701 50.65207029 7.33444696 48.96354153 7.34775543 47.27506256 C7.46828159 30.78976186 4.91917425 15.75633987 0 0 Z " fill="#220000" transform="translate(314,108)"/>
<path d="M0 0 C22.56796112 2.39628113 41.6433213 9.87615659 58 26 C58.495 27.485 58.495 27.485 59 29 C58.34 29 57.68 29 57 29 C57 28.34 57 27.68 57 27 C54.56282742 27.27034634 54.56282742 27.27034634 52 28 C51.34 28.99 50.68 29.98 50 31 C49.34 31 48.68 31 48 31 C48.33 29.35 48.66 27.7 49 26 C49.99 26 50.98 26 52 26 C52 25.01 52 24.02 52 23 C51.34 23 50.68 23 50 23 C50 22.34 50 21.68 50 21 C49.195625 20.731875 48.39125 20.46375 47.5625 20.1875 C46.716875 19.795625 45.87125 19.40375 45 19 C44.505 17.515 44.505 17.515 44 16 C40.48809191 14.77030122 40.48809191 14.77030122 37 14 C37 13.34 37 12.68 37 12 C35.1128125 12.12375 35.1128125 12.12375 33.1875 12.25 C31.04296875 12.390625 31.04296875 12.390625 29 12 C28.525625 11.360625 28.05125 10.72125 27.5625 10.0625 C25.51648762 7.36176366 24.10395948 7.26295472 20.8125 6.75 C19.91144531 6.60046875 19.01039063 6.4509375 18.08203125 6.296875 C17.39496094 6.19890625 16.70789063 6.1009375 16 6 C16 5.34 16 4.68 16 4 C10.72 3.34 5.44 2.68 0 2 C0 1.34 0 0.68 0 0 Z " fill="#C7441F" transform="translate(240,57)"/>
<path d="M0 0 C1.99954746 -0.04254356 4.00041636 -0.04080783 6 0 C7 1 7 1 7.1875 4.25 C7 8 7 8 5 13 C35.69 13 66.38 13 98 13 C98 13.33 98 13.66 98 14 C66.65 14 35.3 14 3 14 C4.125 6.125 4.125 6.125 6 2 C4.35 2 2.7 2 1 2 C0.67 2.99 0.34 3.98 0 5 C-0.33 4.01 -0.66 3.02 -1 2 C-0.67 1.34 -0.34 0.68 0 0 Z " fill="#C4532C" transform="translate(195,231)"/>
<path d="M0 0 C1.65 0 3.3 0 5 0 C4.7834375 0.83144531 4.566875 1.66289062 4.34375 2.51953125 C4.0653125 3.60621094 3.786875 4.69289062 3.5 5.8125 C3.2215625 6.89144531 2.943125 7.97039062 2.65625 9.08203125 C1.89029052 11.98933975 1.89029052 11.98933975 2 15 C-1.63 15 -5.26 15 -9 15 C-8.34 13.35 -7.68 11.7 -7 10 C-7.33 9.34 -7.66 8.68 -8 8 C-7.50628906 7.59007812 -7.01257813 7.18015625 -6.50390625 6.7578125 C-5.86324219 6.21898437 -5.22257813 5.68015625 -4.5625 5.125 C-3.92441406 4.59132812 -3.28632813 4.05765625 -2.62890625 3.5078125 C-0.89194996 2.0777243 -0.89194996 2.0777243 0 0 Z " fill="#070608" transform="translate(196,233)"/>
<path d="M0 0 C2 2 2 2 2.1953125 4.3828125 C2.17210937 5.28773438 2.14890625 6.19265625 2.125 7.125 C2.10695313 8.03507813 2.08890625 8.94515625 2.0703125 9.8828125 C2.04710937 10.58148438 2.02390625 11.28015625 2 12 C1.08624603 12.01030746 0.17249207 12.02061493 -0.76895142 12.03123474 C-9.39080477 12.12931461 -18.01259135 12.23184378 -26.63433266 12.33933926 C-31.06658139 12.39444423 -35.49883686 12.44784391 -39.93115234 12.49731445 C-44.21058057 12.54514185 -48.48993203 12.59749046 -52.76926804 12.65294075 C-54.3998663 12.6732813 -56.03048555 12.69200767 -57.66112137 12.70907402 C-59.94945075 12.73330276 -62.23763746 12.76333065 -64.52587891 12.79467773 C-65.82715729 12.81022202 -67.12843567 12.8257663 -68.46914673 12.84178162 C-71.7310224 12.98794705 -74.79719409 13.38397783 -78 14 C-78 13.01 -78 12.02 -78 11 C-51.93 11 -25.86 11 1 11 C0.505 5.555 0.505 5.555 0 0 Z " fill="#290100" transform="translate(200,154)"/>
<path d="M0 0 C3.26410357 -0.37617294 3.26410357 -0.37617294 6 -1 C2.13035609 2.0737597 -2.07230692 4.2235629 -6.44140625 6.5 C-8.7367644 7.84567562 -10.22856924 9.0556189 -12 11 C-16.68571429 15 -16.68571429 15 -19 15 C-19 14.34 -19 13.68 -19 13 C-18.34 13 -17.68 13 -17 13 C-17 12.34 -17 11.68 -17 11 C-17.99 11 -18.98 11 -20 11 C-20 9.02 -20 7.04 -20 5 C-19.01 5.495 -19.01 5.495 -18 6 C-18 6.66 -18 7.32 -18 8 C-14.7 7.34 -11.4 6.68 -8 6 C-8 5.34 -8 4.68 -8 4 C-8.99 3.67 -9.98 3.34 -11 3 C-11 2.34 -11 1.68 -11 1 C-6.83585071 -1.08207465 -4.49913439 -0.82637162 0 0 Z " fill="#160304" transform="translate(84,65)"/>
<path d="M0 0 C3.02871945 4.54307917 3.12276161 7.67550539 3.11352539 13.04174805 C3.11367142 13.75419678 3.11381744 14.46664551 3.1139679 15.20068359 C3.11327151 17.554393 3.10549192 19.90802317 3.09765625 22.26171875 C3.0957911 23.89410865 3.09436765 25.52649911 3.09336853 27.15888977 C3.08955101 31.45461575 3.07972724 35.75030789 3.06866455 40.04602051 C3.05843399 44.42976423 3.05386738 48.81351341 3.04882812 53.19726562 C3.0381043 61.7981926 3.02103705 70.39909209 3 79 C1.02 79 -0.96 79 -3 79 C-3 78.34 -3 77.68 -3 77 C-1.68 77 -0.36 77 1 77 C1.023216 67.99403277 1.04096219 58.98807591 1.05181217 49.98208523 C1.05702078 45.79981361 1.06408157 41.61756253 1.07543945 37.43530273 C1.08634037 33.39582684 1.09229206 29.35637065 1.09487724 25.31688118 C1.09671853 23.77919263 1.10031405 22.24150511 1.10573006 20.703825 C1.11303621 18.54267966 1.11398693 16.38161477 1.11352539 14.22045898 C1.11685631 12.37846169 1.11685631 12.37846169 1.12025452 10.49925232 C0.9977709 6.93513604 0.5688107 3.51821646 0 0 Z " fill="#DE4B1A" transform="translate(259,133)"/>
<path d="M0 0 C0.66 0.33 1.32 0.66 2 1 C0 4 0 4 -2.32206726 4.67941284 C-4.86038198 4.98328571 -7.29156789 5.1269076 -9.84692383 5.12939453 C-11.24911919 5.13412277 -11.24911919 5.13412277 -12.67964172 5.13894653 C-14.17819954 5.13591019 -14.17819954 5.13591019 -15.70703125 5.1328125 C-17.2660743 5.13424759 -17.2660743 5.13424759 -18.85661316 5.13571167 C-21.05292827 5.13639126 -23.24924541 5.1345524 -25.44555664 5.13037109 C-28.78992282 5.12503602 -32.1341537 5.13031523 -35.47851562 5.13671875 C-37.61718779 5.13605761 -39.75585988 5.13477571 -41.89453125 5.1328125 C-43.38398003 5.13584885 -43.38398003 5.13584885 -44.90351868 5.13894653 C-50.36235509 5.12072353 -55.59914995 4.8032872 -61 4 C-61 3.34 -61 2.68 -61 2 C-60.40751465 2.07001221 -59.8150293 2.14002441 -59.20458984 2.2121582 C-51.11404475 3.06526342 -43.05608179 3.18616677 -34.93066406 3.18530273 C-32.63587892 3.18748963 -30.3415757 3.20571588 -28.046875 3.22460938 C-13.62330947 3.6644348 -13.62330947 3.6644348 0 0 Z " fill="#210100" transform="translate(186,242)"/>
<path d="M0 0 C0 3 0 3 -1.4609375 4.53515625 C-2.09257812 5.03917969 -2.72421875 5.54320312 -3.375 6.0625 C-5.35131693 7.66063282 -7.19993981 9.19993981 -9 11 C-12.125 10.625 -12.125 10.625 -15 10 C-15 10.66 -15 11.32 -15 12 C-14.01 12 -13.02 12 -12 12 C-12 12.66 -12 13.32 -12 14 C-14.64 14 -17.28 14 -20 14 C-20.33 13.34 -20.66 12.68 -21 12 C-21.99 11.34 -22.98 10.68 -24 10 C-22.35 10 -20.7 10 -19 10 C-19 9.34 -19 8.68 -19 8 C-18.1646875 7.85304687 -18.1646875 7.85304687 -17.3125 7.703125 C-10.93228181 6.45294711 -4.7008969 4.7008969 0 0 Z " fill="#0A0204" transform="translate(312,236)"/>
<path d="M0 0 C-0.33 0.99 -0.66 1.98 -1 3 C-0.39671875 3.12117188 0.2065625 3.24234375 0.828125 3.3671875 C1.62734375 3.53476562 2.4265625 3.70234375 3.25 3.875 C4.03890625 4.03742188 4.8278125 4.19984375 5.640625 4.3671875 C7.96831144 4.99150075 9.89031952 5.84838542 12 7 C5.7060737 7.45774009 0.16380889 6.54913056 -5.9375 5.125 C-6.69538818 4.95129883 -7.45327637 4.77759766 -8.23413086 4.59863281 C-13.74391586 3.25608414 -13.74391586 3.25608414 -16 1 C-10.63904667 -0.12862175 -5.44693314 -0.09688221 0 0 Z " fill="#DE4416" transform="translate(112,296)"/>
<path d="M0 0 C2.97 0.495 2.97 0.495 6 1 C6 1.99 6 2.98 6 4 C6.66 4 7.32 4 8 4 C8 4.66 8 5.32 8 6 C8.66 6 9.32 6 10 6 C10 6.66 10 7.32 10 8 C10.66 8 11.32 8 12 8 C12 8.66 12 9.32 12 10 C12.66 10 13.32 10 14 10 C14.33 11.65 14.66 13.3 15 15 C15.66 15 16.32 15 17 15 C19.69707634 21.55004254 21.53699151 26.88486245 21 34 C19.0365663 31.05484945 18.47271081 29.25670545 17.6875 25.875 C14.92961829 15.63720499 10.19598879 9.78731934 2.23046875 2.96875 C1.49441406 2.3190625 0.75835937 1.669375 0 1 C0 0.67 0 0.34 0 0 Z " fill="#D8451C" transform="translate(255,110)"/>
<path d="M0 0 C0 0.66 0 1.32 0 2 C-2.5 3.5 -2.5 3.5 -5 5 C-5 5.66 -5 6.32 -5 7 C-5.99 7 -6.98 7 -8 7 C-8.226875 7.804375 -8.45375 8.60875 -8.6875 9.4375 C-10 12 -10 12 -12.5 12.875 C-15 13 -15 13 -17 12 C-15.57369692 8.66950878 -13.84985604 6.68261063 -11.125 4.3125 C-10.44695312 3.71050781 -9.76890625 3.10851562 -9.0703125 2.48828125 C-5.99146488 0.27499645 -3.7510759 0 0 0 Z " fill="#E34113" transform="translate(119,169)"/>
<path d="M0 0 C0.83778992 0.0028299 1.67557983 0.00565979 2.53875732 0.00857544 C5.20827663 0.01974901 7.8774575 0.04484829 10.546875 0.0703125 C12.35937015 0.08034596 14.17187056 0.08947117 15.984375 0.09765625 C20.42200493 0.1196791 24.85938263 0.15418946 29.296875 0.1953125 C29.296875 0.5253125 29.296875 0.8553125 29.296875 1.1953125 C27.80692017 1.21718628 27.80692017 1.21718628 26.28686523 1.23950195 C22.57590039 1.29779412 18.86552285 1.3750228 15.1550293 1.45776367 C13.55388981 1.49086842 11.95263768 1.51894471 10.35131836 1.54174805 C8.03971683 1.57556232 5.72913422 1.62788701 3.41796875 1.68359375 C2.71038925 1.68998367 2.00280975 1.6963736 1.27378845 1.70295715 C-3.79136075 1.85036054 -7.26687017 2.91335788 -11.703125 5.1953125 C-13.85863994 8.06130444 -14.04999929 10.92238685 -14.328125 14.4453125 C-14.40289062 15.33734375 -14.47765625 16.229375 -14.5546875 17.1484375 C-14.60367188 17.82390625 -14.65265625 18.499375 -14.703125 19.1953125 C-15.033125 19.1953125 -15.363125 19.1953125 -15.703125 19.1953125 C-15.78473248 17.30020551 -15.84258959 15.40406746 -15.890625 13.5078125 C-15.92542969 12.45207031 -15.96023437 11.39632812 -15.99609375 10.30859375 C-15.6616246 6.75430156 -14.88752363 4.99821501 -12.703125 2.1953125 C-8.87843676 -0.55996689 -4.50626112 -0.05738784 0 0 Z " fill="#D64920" transform="translate(172.703125,182.8046875)"/>
<path d="M0 0 C3.96 0 7.92 0 12 0 C9 3 9 3 5.8125 3.1875 C4.884375 3.125625 3.95625 3.06375 3 3 C3 3.99 3 4.98 3 6 C1.78763672 6.19916016 1.78763672 6.19916016 0.55078125 6.40234375 C-0.51785156 6.57894531 -1.58648437 6.75554687 -2.6875 6.9375 C-3.74324219 7.11152344 -4.79898438 7.28554687 -5.88671875 7.46484375 C-8.60249604 7.93167121 -11.30124235 8.44422616 -14 9 C-10.83200259 4.86782946 -7.83689772 4.30521096 -2.92578125 3.58984375 C-2.29027344 3.39519531 -1.65476562 3.20054688 -1 3 C-0.67 2.01 -0.34 1.02 0 0 Z " fill="#F64405" transform="translate(125,98)"/>
<path d="M0 0 C0 3.74110915 -1.50749395 5.17742091 -3.6875 8.08203125 C-5.61638983 10.90073633 -6.76762908 13.82178025 -8 17 C-8.66 17 -9.32 17 -10 17 C-11.92471317 22.33835539 -13.39891424 27.34979382 -14 33 C-14.99 33 -15.98 33 -17 33 C-14.55461958 20.74762521 -8.7543591 8.97321808 0 0 Z " fill="#D54720" transform="translate(59,87)"/>
<path d="M0 0 C1.9375 0.75 1.9375 0.75 4 2 C5.23843794 4.95319818 5.04187157 5.87438528 4 9 C4.61875 9.061875 5.2375 9.12375 5.875 9.1875 C6.57625 9.455625 7.2775 9.72375 8 10 C8.68132451 11.66072849 9.34742127 13.327767 10 15 C12.00016466 16.20882096 12.00016466 16.20882096 14 17 C14.33 17.66 14.66 18.32 15 19 C7.16697186 15.27495995 1.80416357 10.16985017 -3 3 C-1.68 3.33 -0.36 3.66 1 4 C0.67 2.68 0.34 1.36 0 0 Z " fill="#E94516" transform="translate(61,268)"/>
<path d="M0 0 C-1.125 1.5 -1.125 1.5 -3 3 C-6.1875 3.1875 -6.1875 3.1875 -9 3 C-9.33 3.99 -9.66 4.98 -10 6 C-11.65 6.33 -13.3 6.66 -15 7 C-15.33 9.31 -15.66 11.62 -16 14 C-17.98 13.01 -19.96 12.02 -22 11 C-20.57201965 6.71605896 -17.43472604 5.80818812 -13.625 3.875 C-12.59632812 3.33552734 -12.59632812 3.33552734 -11.546875 2.78515625 C-3.76755585 -1.25585195 -3.76755585 -1.25585195 0 0 Z " fill="#E04118" transform="translate(96,64)"/>
<path d="M0 0 C2.63096932 2.28823769 3.60402351 4.16144436 4.5703125 7.4921875 C4.82683594 8.36230469 5.08335937 9.23242188 5.34765625 10.12890625 C5.60417969 11.03511719 5.86070312 11.94132812 6.125 12.875 C6.38925781 13.77347656 6.65351563 14.67195313 6.92578125 15.59765625 C8.96321407 22.59939238 10.12366111 28.7039945 10 36 C7.67409146 32.36576791 7.83734167 29.22911669 8 25 C7.34 25 6.68 25 6 25 C5.85304688 23.98292969 5.85304688 23.98292969 5.703125 22.9453125 C4.74083007 16.9558561 3.30208431 11.72396051 0.8046875 6.19140625 C0 4 0 4 0 0 Z " fill="#D64721" transform="translate(311,103)"/>
<path d="M0 0 C11.34767179 -0.67784765 20.65251735 1.40525879 29.94140625 8.0859375 C32.22856033 10.2125134 33.64153991 12.19160102 35 15 C34.67 15.66 34.34 16.32 34 17 C31 13.25 31 13.25 31 11 C30.41476563 10.72027344 29.82953125 10.44054687 29.2265625 10.15234375 C27 9 27 9 25.2734375 7.81640625 C17.66031864 2.78798824 8.84865596 2.17409351 0 1 C0 0.67 0 0.34 0 0 Z " fill="#D04720" transform="translate(224,116)"/>
<path d="M0 0 C1.79244141 0.72316406 1.79244141 0.72316406 3.62109375 1.4609375 C5.22642135 2.09931339 6.83189816 2.73731416 8.4375 3.375 C9.6121582 3.85066406 9.6121582 3.85066406 10.81054688 4.3359375 C16.15691459 6.44808277 21.35973141 7.88210893 27 9 C27 9.33 27 9.66 27 10 C22.38 10 17.76 10 13 10 C12.67 9.34 12.34 8.68 12 8 C9.97536745 7.34786708 9.97536745 7.34786708 8 7 C8 6.34 8 5.68 8 5 C7.05125 4.9175 6.1025 4.835 5.125 4.75 C4.09375 4.5025 3.0625 4.255 2 4 C0.8046875 1.953125 0.8046875 1.953125 0 0 Z " fill="#2D0501" transform="translate(83,292)"/>
<path d="M0 0 C0.33 0.66 0.66 1.32 1 2 C0.54625 2.845625 0.0925 3.69125 -0.375 4.5625 C-2.12659642 8.26780012 -2.50551086 11.11404715 -2.7890625 15.14453125 C-3 17 -3 17 -4 18 C-4.12653198 20.49238569 -4.18519825 22.94470441 -4.1875 25.4375 C-4.19974609 26.13166016 -4.21199219 26.82582031 -4.22460938 27.54101562 C-4.22989842 29.36220901 -4.12169207 31.1828692 -4 33 C-3.34 33.66 -2.68 34.32 -2 35 C-3.32 35 -4.64 35 -6 35 C-6.08834684 31.68767302 -6.14083584 28.37565565 -6.1875 25.0625 C-6.21263672 24.13630859 -6.23777344 23.21011719 -6.26367188 22.25585938 C-6.35147725 13.91434877 -4.72622228 6.97680432 0 0 Z " fill="#CC441F" transform="translate(110,127)"/>
<path d="M0 0 C5.34937284 0.634204 7.11490829 2.8549922 10.41796875 6.86328125 C12.70490928 9.95206266 15 13.05539559 15 17 C14.34 17 13.68 17 13 17 C13 16.01 13 15.02 13 14 C12.34 14 11.68 14 11 14 C10.34 15.32 9.68 16.64 9 18 C8.06934867 15.39417629 7.85082593 14.35801776 8.9375 11.75 C9.288125 11.1725 9.63875 10.595 10 10 C9.34 10 8.68 10 8 10 C7.608125 9.0925 7.21625 8.185 6.8125 7.25 C4.9212628 3.85881606 3.1445327 2.20967163 0 0 Z " fill="#2B0501" transform="translate(257,115)"/>
<path d="M0 0 C1.32 0.33 2.64 0.66 4 1 C3.34773438 1.52207031 2.69546875 2.04414062 2.0234375 2.58203125 C-4.4511077 8.03478245 -8.46792725 13.31845967 -12 21 C-13.11353866 17.25373781 -12.80746732 15.52456128 -11 12 C-10.0206121 10.97980427 -9.02104551 9.97850195 -8 9 C-6.82425289 6.90010348 -6.82425289 6.90010348 -6 5 C-6.66 4.67 -7.32 4.34 -8 4 C-7.05125 3.896875 -6.1025 3.79375 -5.125 3.6875 C-1.70892499 3.31460705 -1.70892499 3.31460705 0 0 Z " fill="#D04620" transform="translate(100,111)"/>
<path d="M0 0 C1.65 0 3.3 0 5 0 C4.01 3.96 3.02 7.92 2 12 C1.67 12 1.34 12 1 12 C0.67 10.35 0.34 8.7 0 7 C-0.99 7 -1.98 7 -3 7 C-3.33 7.66 -3.66 8.32 -4 9 C-5.32 8.67 -6.64 8.34 -8 8 C-7.50628906 7.59007812 -7.01257813 7.18015625 -6.50390625 6.7578125 C-5.86324219 6.21898437 -5.22257813 5.68015625 -4.5625 5.125 C-3.92441406 4.59132812 -3.28632813 4.05765625 -2.62890625 3.5078125 C-0.89194996 2.0777243 -0.89194996 2.0777243 0 0 Z " fill="#360702" transform="translate(196,233)"/>
<path d="M0 0 C3.96 0 7.92 0 12 0 C12 0.66 12 1.32 12 2 C13.11375 1.896875 14.2275 1.79375 15.375 1.6875 C20.89430448 1.6578794 25.42917289 4.05970186 30 7 C30.33 7.66 30.66 8.32 31 9 C29.625 8.54166667 28.25 8.08333333 26.875 7.625 C26.04871094 7.35171875 25.22242188 7.0784375 24.37109375 6.796875 C22.55003126 6.184854 20.74083053 5.53744795 18.9375 4.875 C15.28286405 3.78638504 11.7917617 3.39225121 8 3 C8 2.34 8 1.68 8 1 C5.36 1 2.72 1 0 1 C0 0.67 0 0.34 0 0 Z " fill="#D6461A" transform="translate(224,101)"/>
<path d="M0 0 C0.93328125 -0.02900391 1.8665625 -0.05800781 2.828125 -0.08789062 C8.71693688 -0.14210773 12.18245475 0.30826607 16.625 4.3125 C16.625 4.9725 16.625 5.6325 16.625 6.3125 C15.965 6.3125 15.305 6.3125 14.625 6.3125 C14.625 5.6525 14.625 4.9925 14.625 4.3125 C11.655 3.8175 11.655 3.8175 8.625 3.3125 C8.625 2.6525 8.625 1.9925 8.625 1.3125 C-3.40731432 1.96080364 -3.40731432 1.96080364 -15.375 3.3125 C-14.375 1.3125 -14.375 1.3125 -12.61083984 0.70239258 C-8.43098048 -0.02650406 -4.23299726 0.0434897 0 0 Z " fill="#3E0701" transform="translate(183.375,147.6875)"/>
<path d="M0 0 C0.66 0 1.32 0 2 0 C6.97564525 10.68570309 8.18778523 19.35731576 8 31 C7.67 31 7.34 31 7 31 C6.82984375 29.93523437 6.6596875 28.87046875 6.484375 27.7734375 C4.91681723 18.28130945 2.87136729 9.19712059 0 0 Z " fill="#3D0701" transform="translate(314,108)"/>
<path d="M0 0 C3.86055058 2.81373462 6.30356165 5.56915631 8.8125 9.625 C9.41707031 10.58664063 10.02164062 11.54828125 10.64453125 12.5390625 C12 15 12 15 12 17 C11.01 16.67 10.02 16.34 9 16 C8.33333333 14.33333333 7.66666667 12.66666667 7 11 C6.01 10.67 5.02 10.34 4 10 C3.67 9.01 3.34 8.02 3 7 C2.01 7.33 1.02 7.66 0 8 C0 5.36 0 2.72 0 0 Z " fill="#CD421B" transform="translate(299,86)"/>
<path d="M0 0 C0.66 0 1.32 0 2 0 C2.33 2.64 2.66 5.28 3 8 C-11.85 7.505 -11.85 7.505 -27 7 C-27 6.67 -27 6.34 -27 6 C-18.09 6 -9.18 6 0 6 C0 4.02 0 2.04 0 0 Z " fill="#F43E0B" transform="translate(203,208)"/>
<path d="M0 0 C1.65 0 3.3 0 5 0 C5 0.66 5 1.32 5 2 C-0.58476069 5.58214448 -5.48257253 5.3564056 -11.875 5.1875 C-12.84953125 5.17396484 -13.8240625 5.16042969 -14.828125 5.14648438 C-17.21932863 5.11131962 -19.60936975 5.0621067 -22 5 C-22 4.67 -22 4.34 -22 4 C-14.74 3.67 -7.48 3.34 0 3 C0 2.01 0 1.02 0 0 Z " fill="#F24312" transform="translate(185,239)"/>
<path d="M0 0 C1.30324219 0.61488281 1.30324219 0.61488281 2.6328125 1.2421875 C4.36144531 2.05042969 4.36144531 2.05042969 6.125 2.875 C7.26195313 3.40867188 8.39890625 3.94234375 9.5703125 4.4921875 C15.44774416 7.07611531 20.66558593 8.34471579 27 9 C27 9.33 27 9.66 27 10 C20.26731433 10.87395439 14.70888402 9.5436228 8.4375 7.25 C7.72271484 6.99782715 7.00792969 6.7456543 6.27148438 6.48583984 C4.24609375 5.703125 4.24609375 5.703125 1 4 C0.03515625 1.796875 0.03515625 1.796875 0 0 Z " fill="#D1451E" transform="translate(101,247)"/>
<path d="M0 0 C2.12472576 -0.05386629 4.24983652 -0.09273071 6.375 -0.125 C7.55835938 -0.14820313 8.74171875 -0.17140625 9.9609375 -0.1953125 C13 0 13 0 15 2 C17.57061311 2.64767793 17.57061311 2.64767793 20 3 C20 3.99 20 4.98 20 6 C19.31035156 5.80664062 18.62070312 5.61328125 17.91015625 5.4140625 C11.96828666 3.76761853 6.03029017 2.28514381 0 1 C0 0.67 0 0.34 0 0 Z " fill="#330802" transform="translate(249,58)"/>
<path d="M0 0 C8 9.71428571 8 9.71428571 8 13 C6.35 13 4.7 13 3 13 C2.49242138 11.58603098 1.99425075 10.16868271 1.5 8.75 C1.08234375 7.56664062 1.08234375 7.56664062 0.65625 6.359375 C0 4 0 4 0 0 Z " fill="#250804" transform="translate(48,257)"/>
<path d="M0 0 C-0.26953125 1.88671875 -0.26953125 1.88671875 -1 4 C-2.63671875 5.01953125 -2.63671875 5.01953125 -4.6875 5.8125 C-9.35838817 7.90808766 -11.9903797 10.94157263 -15 15 C-15.66 14.67 -16.32 14.34 -17 14 C-5.62944162 0 -5.62944162 0 0 0 Z " fill="#330401" transform="translate(109,109)"/>
<path d="M0 0 C0.99 0 1.98 0 3 0 C3 0.66 3 1.32 3 2 C3.61875 2.20625 4.2375 2.4125 4.875 2.625 C7.87022113 4.56308426 8.15511762 6.6204705 9 10 C9 10.66 9 11.32 9 12 C9.66 12 10.32 12 11 12 C11 13.65 11 15.3 11 17 C8.60450324 13.89908087 6.47139709 10.68463115 4.375 7.375 C3.76398438 6.41335937 3.15296875 5.45171875 2.5234375 4.4609375 C1 2 1 2 0 0 Z " fill="#2A0300" transform="translate(302,88)"/>
<path d="M0 0 C0.66 0 1.32 0 2 0 C-0.50439104 7.85468098 -3.21949359 15.65741644 -7 23 C-7.19195265 18.55861276 -6.63330944 15.13413788 -5.1875 10.9375 C-4.68283203 9.43509766 -4.68283203 9.43509766 -4.16796875 7.90234375 C-3.01243866 5.03090944 -1.77358885 2.53702342 0 0 Z " fill="#390801" transform="translate(48,99)"/>
<path d="M0 0 C0.99 0.495 0.99 0.495 2 1 C2 1.99 2 2.98 2 4 C2.99 4 3.98 4 5 4 C5.28875 4.94875 5.5775 5.8975 5.875 6.875 C6.76825109 10.05211578 6.76825109 10.05211578 9 12 C10.1875 13.9375 10.1875 13.9375 11 16 C10.67 16.99 10.34 17.98 10 19 C8.51092705 16.77691937 7.03377283 14.54731655 5.5625 12.3125 C5.14162109 11.68666016 4.72074219 11.06082031 4.28710938 10.41601562 C2.02936566 6.96618323 0.44137697 4.1970937 0 0 Z " fill="#D1461F" transform="translate(47,252)"/>
<path d="M0 0 C0 3 0 3 -2.1875 5.625 C-7.24842634 9.89867113 -12.66821542 9.12415264 -19 9 C-19 8.67 -19 8.34 -19 8 C-18.1646875 7.85304687 -18.1646875 7.85304687 -17.3125 7.703125 C-10.93228181 6.45294711 -4.7008969 4.7008969 0 0 Z " fill="#3B0A03" transform="translate(312,236)"/>
<path d="M0 0 C0.66 0 1.32 0 2 0 C2 1.65 2 3.3 2 5 C2.66 5 3.32 5 4 5 C4.28875 5.639375 4.5775 6.27875 4.875 6.9375 C5.82823451 9.15206079 5.82823451 9.15206079 8 10 C8.40729228 12.32156597 8.74438677 14.6568787 9 17 C4.51695453 13.34714813 2.14614053 8.26859909 0 3 C0 2.01 0 1.02 0 0 Z " fill="#2E0501" transform="translate(87,224)"/>
<path d="M0 0 C8.26082413 1.01177241 16.11962476 2.276368 24 5 C24 5.66 24 6.32 24 7 C21.36 6.67 18.72 6.34 16 6 C16 5.34 16 4.68 16 4 C10.72 3.34 5.44 2.68 0 2 C0 1.34 0 0.68 0 0 Z " fill="#DB4821" transform="translate(240,57)"/>
<path d="M0 0 C-2.70649269 1.69155793 -5.0661133 2.2150566 -8.1875 2.5625 C-11.78190939 2.57461534 -11.78190939 2.57461534 -13 4 C-15.18292774 4.23481693 -17.37203174 4.41363323 -19.5625 4.5625 C-20.76003906 4.64628906 -21.95757812 4.73007812 -23.19140625 4.81640625 C-24.11824219 4.87699219 -25.04507813 4.93757813 -26 5 C-22.50658295 2.6710553 -19.29670083 2.09868008 -15.25 1.375 C-14.21359375 1.17390625 -14.21359375 1.17390625 -13.15625 0.96875 C-8.69926197 0.14772589 -4.53038304 -0.13045606 0 0 Z " fill="#D3451D" transform="translate(124,57)"/>
<path d="M0 0 C-3 2 -3 2 -5.5 2.8125 C-8.73642475 4.34980175 -9.52879204 5.76334249 -11 9 C-11.71401232 12.19395026 -11.71401232 12.19395026 -12 15 C-13.32 14.67 -14.64 14.34 -16 14 C-15.34 13.67 -14.68 13.34 -14 13 C-13.896875 11.9275 -13.79375 10.855 -13.6875 9.75 C-12.86146988 5.24438118 -11.50894415 3.84057384 -8 1 C-5.07175348 0.02391783 -3.04386724 -0.08226668 0 0 Z " fill="#CD492A" transform="translate(176,147)"/>
<path d="M0 0 C2.64 0.66 5.28 1.32 8 2 C8 2.66 8 3.32 8 4 C11.62197194 5.49140021 15.27566618 6.7874262 19 8 C19 8.66 19 9.32 19 10 C12.57788879 8.13257759 6.56883822 5.76642406 1 2 C0.67 1.34 0.34 0.68 0 0 Z " fill="#C44124" transform="translate(76,287)"/>
<path d="M0 0 C2.64 0 5.28 0 8 0 C6.02 0.99 6.02 0.99 4 2 C4 3.65 4 5.3 4 7 C2.02 7 0.04 7 -2 7 C-1.34 4.69 -0.68 2.38 0 0 Z " fill="#F93F0E" transform="translate(194,167)"/>
<path d="M0 0 C0.99 0.495 0.99 0.495 2 1 C2 1.66 2 2.32 2 3 C2.99 2.67 3.98 2.34 5 2 C5.66 2.66 6.32 3.32 7 4 C4.375 8.875 4.375 8.875 1 10 C1 9.34 1 8.68 1 8 C1.66 8 2.32 8 3 8 C3 7.34 3 6.68 3 6 C2.01 6 1.02 6 0 6 C0 4.02 0 2.04 0 0 Z " fill="#150607" transform="translate(64,70)"/>
<path d="M0 0 C2.31 0 4.62 0 7 0 C7 2.31 7 4.62 7 7 C6.01 7 5.02 7 4 7 C4 6.01 4 5.02 4 4 C2.35 4 0.7 4 -1 4 C-0.67 2.68 -0.34 1.36 0 0 Z " fill="#07030A" transform="translate(265,57)"/>
<path d="M0 0 C4.67692308 1.47692308 4.67692308 1.47692308 6.3125 4.125 C6.539375 4.74375 6.76625 5.3625 7 6 C6.34 6 5.68 6 5 6 C5 5.34 5 4.68 5 4 C2.56282742 4.27034634 2.56282742 4.27034634 0 5 C-0.99 6.485 -0.99 6.485 -2 8 C-2.66 8 -3.32 8 -4 8 C-3.67 6.35 -3.34 4.7 -3 3 C-2.01 3 -1.02 3 0 3 C0 2.01 0 1.02 0 0 Z " fill="#E24410" transform="translate(292,80)"/>
<path d="M0 0 C1.48484412 0.39595843 2.9628831 0.81750706 4.4375 1.25 C5.26121094 1.48203125 6.08492187 1.7140625 6.93359375 1.953125 C7.61550781 2.29859375 8.29742187 2.6440625 9 3 C9.66015625 5.046875 9.66015625 5.046875 10 7 C10.66 7.33 11.32 7.66 12 8 C12 9.65 12 11.3 12 13 C11.443125 12.278125 10.88625 11.55625 10.3125 10.8125 C8.01755352 8.02134888 5.5865727 5.52025033 3 3 C1.99881727 2.00118413 0.99855178 1.00144613 0 0 Z " fill="#370804" transform="translate(248,120)"/>
<path d="M0 0 C0.66 0.33 1.32 0.66 2 1 C-1.32307692 6.78461538 -1.32307692 6.78461538 -4.75 7.875 C-5.4925 7.91625 -6.235 7.9575 -7 8 C-7 8.66 -7 9.32 -7 10 C-7.99 10.33 -8.98 10.66 -10 11 C-10 10.34 -10 9.68 -10 9 C-9.34 9 -8.68 9 -8 9 C-7.79375 8.443125 -7.5875 7.88625 -7.375 7.3125 C-5.44999226 4.07498698 -2.96149098 2.31768859 0 0 Z " fill="#D1411A" transform="translate(70,76)"/>
<path d="M0 0 C0.33 0 0.66 0 1 0 C2.32 5.94 3.64 11.88 5 18 C4.01 17.34 3.02 16.68 2 16 C2 14.68 2 13.36 2 12 C1.34 12 0.68 12 0 12 C0 8.04 0 4.08 0 0 Z " fill="#420B03" transform="translate(39,228)"/>
<path d="M0 0 C0.66 0.33 1.32 0.66 2 1 C0 4 0 4 -3.125 4.75 C-7.32119001 5.02072194 -10.85840914 4.6539354 -15 4 C-15 3.67 -15 3.34 -15 3 C-14.08476562 2.86722656 -13.16953125 2.73445312 -12.2265625 2.59765625 C-11.03804687 2.42105469 -9.84953125 2.24445313 -8.625 2.0625 C-7.44164062 1.88847656 -6.25828125 1.71445313 -5.0390625 1.53515625 C-2.09297619 1.16537214 -2.09297619 1.16537214 0 0 Z " fill="#380600" transform="translate(186,242)"/>
<path d="M0 0 C0.73605469 0.48210937 1.47210938 0.96421875 2.23046875 1.4609375 C3.20628906 2.09257812 4.18210937 2.72421875 5.1875 3.375 C6.63189453 4.31472656 6.63189453 4.31472656 8.10546875 5.2734375 C10.69803936 6.81988312 13.16853116 7.97508075 16 9 C11.99799622 10.60080151 8.95443764 9.29279692 5 8 C5 7.01 5 6.02 5 5 C4.360625 4.731875 3.72125 4.46375 3.0625 4.1875 C1 3 1 3 0 0 Z " fill="#2F0400" transform="translate(104,233)"/>
<path d="M0 0 C1.98 0 3.96 0 6 0 C3.5 2 3.5 2 1 4 C0.113125 4.7425 -0.77375 5.485 -1.6875 6.25 C-4 8 -4 8 -6 8 C-5.67 6.68 -5.34 5.36 -5 4 C-3.35 3.67 -1.7 3.34 0 3 C0 2.01 0 1.02 0 0 Z " fill="#320700" transform="translate(76,68)"/>
<path d="M0 0 C0.99386719 0.00902344 1.98773438 0.01804688 3.01171875 0.02734375 C4.15060547 0.04474609 4.15060547 0.04474609 5.3125 0.0625 C5.3125 0.3925 5.3125 0.7225 5.3125 1.0625 C3.18857494 1.7325834 1.06332476 2.39846797 -1.0625 3.0625 C-2.24585937 3.43375 -3.42921875 3.805 -4.6484375 4.1875 C-7.6875 5.0625 -7.6875 5.0625 -9.6875 5.0625 C-9.375 3.125 -9.375 3.125 -8.6875 1.0625 C-5.53819107 0.01273036 -3.29935544 -0.03881595 0 0 Z " fill="#2E0702" transform="translate(100.6875,58.9375)"/>
<path d="M0 0 C3.63 2.31 7.26 4.62 11 7 C10.34 7.66 9.68 8.32 9 9 C4.99819288 7.22141906 2.23540288 5.84986051 0 2 C0 1.34 0 0.68 0 0 Z " fill="#310501" transform="translate(71,284)"/>
<path d="M0 0 C0.99 1.485 0.99 1.485 2 3 C3.299375 4.2684375 3.299375 4.2684375 4.625 5.5625 C7 8 7 8 7 10 C6.34 10 5.68 10 5 10 C4.67 10.66 4.34 11.32 4 12 C3.34 11.34 2.68 10.68 2 10 C2 9.01 2 8.02 2 7 C1.34 6.67 0.68 6.34 0 6 C0 4.02 0 2.04 0 0 Z M2 12 C4 13 4 13 4 13 Z " fill="#DB451C" transform="translate(158,203)"/>
<path d="M0 0 C-2.08224326 1.07968169 -4.09653889 2.03391907 -6.3125 2.8125 C-9.94395186 4.41709501 -12.81722333 6.62851934 -16 9 C-15.67 7.68 -15.34 6.36 -15 5 C-14.01 5 -13.02 5 -12 5 C-12 4.34 -12 3.68 -12 3 C-11.34 3 -10.68 3 -10 3 C-10 2.34 -10 1.68 -10 1 C-6.59437148 0.22157062 -3.49234244 -0.09978121 0 0 Z " fill="#370603" transform="translate(120,168)"/>
<path d="M0 0 C6.4 0.49230769 6.4 0.49230769 9.4375 3.0625 C10.2109375 4.0215625 10.2109375 4.0215625 11 5 C8.3125 5.875 8.3125 5.875 5 6 C2.86499088 4.20703368 1.61093091 2.32163572 0 0 Z " fill="#D34218" transform="translate(264,63)"/>
<path d="M0 0 C5.875 4.625 5.875 4.625 7 8 C5.35 8 3.7 8 2 8 C0.23537317 4.91190305 0 3.76687864 0 0 Z " fill="#2E0702" transform="translate(58,272)"/>
<path d="M0 0 C0.99 0.495 0.99 0.495 2 1 C2.33 1.99 2.66 2.98 3 4 C5.01508358 4.73323796 5.01508358 4.73323796 7 5 C7 5.66 7 6.32 7 7 C8.32 7.33 9.64 7.66 11 8 C9.3125 8.6875 9.3125 8.6875 7 9 C3.55439366 7.35923508 2.14325038 6.21487558 0 3 C0 2.01 0 1.02 0 0 Z " fill="#320601" transform="translate(159,203)"/>
<path d="M0 0 C0.66 0 1.32 0 2 0 C2.125 2.375 2.125 2.375 2 5 C1.34 5.66 0.68 6.32 0 7 C-0.99 7 -1.98 7 -3 7 C-3 6.34 -3 5.68 -3 5 C-3.66 4.67 -4.32 4.34 -5 4 C-4.34 3.34 -3.68 2.68 -3 2 C-2.01 2 -1.02 2 0 2 C0 1.34 0 0.68 0 0 Z " fill="#F9420E" transform="translate(270,113)"/>
<path d="M0 0 C1.79379098 0.44994757 3.58498928 0.91024143 5.375 1.375 C6.37273437 1.63023438 7.37046875 1.88546875 8.3984375 2.1484375 C11 3 11 3 13 5 C11.58249437 4.88490339 10.16598831 4.75746342 8.75 4.625 C7.96109375 4.55539063 7.1721875 4.48578125 6.359375 4.4140625 C3.914123 3.98492887 2.15163097 3.21399362 0 2 C0 1.34 0 0.68 0 0 Z " fill="#360704" transform="translate(238,104)"/>
<path d="M0 0 C1.65 0 3.3 0 5 0 C5.2475 0.78375 5.495 1.5675 5.75 2.375 C7.1824048 5.38305008 8.0309239 5.75490357 11 7 C11.33 7.66 11.66 8.32 12 9 C8.98472262 7.59422879 6.4052059 5.93873852 3.75 3.9375 C3.04359375 3.41027344 2.3371875 2.88304687 1.609375 2.33984375 C1.07828125 1.89769531 0.5471875 1.45554687 0 1 C0 0.67 0 0.34 0 0 Z " fill="#CE401D" transform="translate(64,278)"/>
<path d="M0 0 C2.31 0 4.62 0 7 0 C7 0.99 7 1.98 7 3 C6.34 3 5.68 3 5 3 C4.67 3.99 4.34 4.98 4 6 C2.62437146 4.71034824 1.29233607 3.37310707 0 2 C0 1.34 0 0.68 0 0 Z " fill="#1C0304" transform="translate(96,240)"/>
<path d="M0 0 C-1.75864246 2.1793144 -2.69396 2.93686419 -5.48046875 3.51171875 C-6.82044922 3.59873047 -6.82044922 3.59873047 -8.1875 3.6875 C-9.08855469 3.75324219 -9.98960938 3.81898437 -10.91796875 3.88671875 C-11.60503906 3.92410156 -12.29210937 3.96148437 -13 4 C-10.81006393 1.81006393 -9.4012702 1.27802011 -6.5 0.3125 C-5.7059375 0.04050781 -4.911875 -0.23148437 -4.09375 -0.51171875 C-2 -1 -2 -1 0 0 Z " fill="#3D0A01" transform="translate(122,105)"/>
<path d="M0 0 C1.17046875 0.03609375 2.3409375 0.0721875 3.546875 0.109375 C4.43890625 0.15578125 5.3309375 0.2021875 6.25 0.25 C6.25 0.58 6.25 0.91 6.25 1.25 C5.03763672 1.44916016 5.03763672 1.44916016 3.80078125 1.65234375 C2.73214844 1.82894531 1.66351563 2.00554687 0.5625 2.1875 C-0.49324219 2.36152344 -1.54898438 2.53554687 -2.63671875 2.71484375 C-5.35249604 3.18167121 -8.05124235 3.69422616 -10.75 4.25 C-7.43152371 0.07726249 -5.22729025 -0.20909161 0 0 Z " fill="#CF441D" transform="translate(121.75,102.75)"/>
<path d="M0 0 C0 3.83764027 -1.26535335 5.11486085 -3.5 8.1875 C-4.1496875 9.08855469 -4.799375 9.98960938 -5.46875 10.91796875 C-5.9740625 11.60503906 -6.479375 12.29210937 -7 13 C-7.66 12.67 -8.32 12.34 -9 12 C-7.68858144 10.18671738 -6.37583526 8.37439486 -5.0625 6.5625 C-3.96615234 5.04849609 -3.96615234 5.04849609 -2.84765625 3.50390625 C-1 1 -1 1 0 0 Z " fill="#BF431E" transform="translate(59,87)"/>
<path d="M0 0 C-2.52952288 3.15111212 -4.76756266 3.58798017 -8.6875 4.1875 C-9.68136719 4.34605469 -10.67523438 4.50460938 -11.69921875 4.66796875 C-12.45847656 4.77753906 -13.21773438 4.88710937 -14 5 C-5.33617859 -1.7787262 -5.33617859 -1.7787262 0 0 Z " fill="#CB4421" transform="translate(96,64)"/>
<path d="M0 0 C0 1.65 0 3.3 0 5 C-2.88437779 3.70700306 -4.87219421 2.34058637 -7 0 C-4.3333581 -1.33332095 -2.83319697 -0.67102033 0 0 Z " fill="#F1440B" transform="translate(78,282)"/>
<path d="M0 0 C0.99 0.66 1.98 1.32 3 2 C2.67 2.66 2.34 3.32 2 4 C2.99 3.67 3.98 3.34 5 3 C5 3.66 5 4.32 5 5 C5.66 5 6.32 5 7 5 C6.67 5.99 6.34 6.98 6 8 C3.36 6.35 0.72 4.7 -2 3 C-1.34 2.01 -0.68 1.02 0 0 Z " fill="#240506" transform="translate(280,66)"/>
<path d="M0 0 C0.66 0 1.32 0 2 0 C2 3.3 2 6.6 2 10 C1.01 10 0.02 10 -1 10 C-0.67 6.7 -0.34 3.4 0 0 Z " fill="#E64513" transform="translate(84,218)"/>
<path d="M0 0 C0 0.99 0 1.98 0 3 C-2.25 5.25 -2.25 5.25 -5 7 C-7.3125 6.75 -7.3125 6.75 -9 6 C-8.34 6 -7.68 6 -7 6 C-7 5.34 -7 4.68 -7 4 C-5.5459375 3.2884375 -5.5459375 3.2884375 -4.0625 2.5625 C-1.19522563 1.29806053 -1.19522563 1.29806053 0 0 Z " fill="#F24409" transform="translate(70,80)"/>
<path d="M0 0 C2.31 0.66 4.62 1.32 7 2 C7.33 3.32 7.66 4.64 8 6 C8.66 6 9.32 6 10 6 C9.67 6.66 9.34 7.32 9 8 C7.49712782 6.85793642 5.99776716 5.71125043 4.5 4.5625 C3.6646875 3.92441406 2.829375 3.28632812 1.96875 2.62890625 C1.3190625 2.09136719 0.669375 1.55382812 0 1 C0 0.67 0 0.34 0 0 Z " fill="#3C0901" transform="translate(287,74)"/>
<path d="M0 0 C7.57142857 1.85714286 7.57142857 1.85714286 10 5 C9.01 5.495 9.01 5.495 8 6 C6.0546875 5.0390625 6.0546875 5.0390625 3.875 3.625 C3.15054688 3.16351563 2.42609375 2.70203125 1.6796875 2.2265625 C1.12539062 1.82179687 0.57109375 1.41703125 0 1 C0 0.67 0 0.34 0 0 Z " fill="#3A0700" transform="translate(101,246)"/>
<path d="M0 0 C2.0625 2.3125 2.0625 2.3125 4 5 C3.67 5.99 3.34 6.98 3 8 C0.9375 6.25 0.9375 6.25 -1 4 C-0.75 1.75 -0.75 1.75 0 0 Z " fill="#03030C" transform="translate(41,248)"/>
<path d="M0 0 C0.33 0 0.66 0 1 0 C1.33 2.97 1.66 5.94 2 9 C1.01 9.33 0.02 9.66 -1 10 C-0.67 6.7 -0.34 3.4 0 0 Z " fill="#030509" transform="translate(324,214)"/>
<path d="M0 0 C3.96 0 7.92 0 12 0 C12 0.33 12 0.66 12 1 C8.04 1.66 4.08 2.32 0 3 C0 2.01 0 1.02 0 0 Z " fill="#310404" transform="translate(122,165)"/>
<path d="M0 0 C2.46278801 2.46278801 2.99771255 4.70676982 4 8 C2.68 8.33 1.36 8.66 0 9 C0 6.03 0 3.06 0 0 Z " fill="#080009" transform="translate(323,135)"/>
<path d="M0 0 C1.65 0 3.3 0 5 0 C5 0.66 5 1.32 5 2 C2.1875 3.5625 2.1875 3.5625 -1 5 C-1.99 4.67 -2.98 4.34 -4 4 C-2.68 3.67 -1.36 3.34 0 3 C0 2.01 0 1.02 0 0 Z " fill="#D1431F" transform="translate(185,239)"/>
<path d="M0 0 C0 0.99 0 1.98 0 3 C-0.99 3.33 -1.98 3.66 -3 4 C-4.20882096 6.00016466 -4.20882096 6.00016466 -5 8 C-5.66 7.67 -6.32 7.34 -7 7 C-3.86206897 0 -3.86206897 0 0 0 Z " fill="#CA4118" transform="translate(109,174)"/>
<path d="M0 0 C3.80984844 2.77079887 4.06840752 6.62868145 5 11 C1.62668646 8.75112431 1.1641821 7.7612037 0 4 C0 2.68 0 1.36 0 0 Z " fill="#C83F1B" transform="translate(311,103)"/>
<path d="M0 0 C0.66 0.66 1.32 1.32 2 2 C0.6875 4 0.6875 4 -1 6 C-1.99 6 -2.98 6 -4 6 C-3.6875 4.125 -3.6875 4.125 -3 2 C-2.01 1.34 -1.02 0.68 0 0 Z " fill="#120210" transform="translate(193,242)"/>
<path d="M0 0 C0.66 0.33 1.32 0.66 2 1 C1.01 2.98 0.02 4.96 -1 7 C-1.66 7 -2.32 7 -3 7 C-2.625 4.0625 -2.625 4.0625 -2 1 C-1.34 0.67 -0.68 0.34 0 0 Z " fill="#F2420C" transform="translate(158,185)"/>
<path d="M0 0 C1.32 0.99 2.64 1.98 4 3 C3.6875 4.9375 3.6875 4.9375 3 7 C2.01 7.33 1.02 7.66 0 8 C0 5.36 0 2.72 0 0 Z " fill="#DF4617" transform="translate(299,86)"/>
<path d="M0 0 C1.32 0.33 2.64 0.66 4 1 C4 1.99 4 2.98 4 4 C4.66 4.33 5.32 4.66 6 5 C4.02 5 2.04 5 0 5 C0 4.34 0 3.68 0 3 C0.66 3 1.32 3 2 3 C2 2.34 2 1.68 2 1 C1.34 0.67 0.68 0.34 0 0 Z " fill="#09040C" transform="translate(92,299)"/>
<path d="M0 0 C1.66666667 3.33333333 3.33333333 6.66666667 5 10 C4.34 10 3.68 10 3 10 C3 9.34 3 8.68 3 8 C2.01 7.67 1.02 7.34 0 7 C0 4.69 0 2.38 0 0 Z " fill="#450802" transform="translate(98,221)"/>
<path d="M0 0 C1.32 0 2.64 0 4 0 C3.67 1.65 3.34 3.3 3 5 C2.01 4.67 1.02 4.34 0 4 C0 2.68 0 1.36 0 0 Z " fill="#00070D" transform="translate(308,88)"/>
</svg>
