<?xml version="1.0" encoding="UTF-8"?>
<svg version="1.1" xmlns="http://www.w3.org/2000/svg" width="416" height="416">
<path d="M0 0 C137.28 0 274.56 0 416 0 C416 137.28 416 274.56 416 416 C278.72 416 141.44 416 0 416 C0 278.72 0 141.44 0 0 Z " fill="#000000" transform="translate(0,0)"/>
<path d="M0 0 C10.37273222 -0.78846782 22.96332718 3.74840971 31.125 10.01171875 C32.66098471 11.41070311 34.16107222 12.84999974 35.625 14.32421875 C36.86443359 15.50951172 36.86443359 15.50951172 38.12890625 16.71875 C52.22759025 31.0757305 60.50743414 50.37105246 61.625 70.32421875 C60.97015625 70.37433105 60.3153125 70.42444336 59.640625 70.47607422 C56.6348235 70.71010643 53.62995665 70.9545868 50.625 71.19921875 C49.59503906 71.27785156 48.56507813 71.35648437 47.50390625 71.4375 C37.95473391 71.70010259 37.95473391 71.70010259 29.625 75.32421875 C28.95126412 77.56419102 28.95126412 77.56419102 29.625 80.32421875 C32.1662696 83.47752187 34.97776132 86.50059941 38.625 88.32421875 C38.625 88.98421875 38.625 89.64421875 38.625 90.32421875 C39.17824951 90.55222168 39.73149902 90.78022461 40.30151367 91.01513672 C43.297429 92.70307389 45.37442522 94.83207411 47.80078125 97.26953125 C48.28902878 97.758237 48.77727631 98.24694275 49.28031921 98.75045776 C50.31222198 99.78537542 51.34169944 100.82271626 52.36889648 101.86230469 C53.91674892 103.42822544 55.4722635 104.98618233 57.02929688 106.54296875 C61.88280372 111.4139558 66.63253695 116.33674724 71.10668945 121.56298828 C73.5103508 124.35121998 76.04353469 127.0155794 78.5625 129.69921875 C83.00370566 134.46389117 87.19361425 139.354324 91.19921875 144.49609375 C93.0065489 146.98450506 93.0065489 146.98450506 95.890625 147.765625 C98.88032594 147.57015946 98.88032594 147.57015946 100.984375 144.7890625 C101.80032592 143.62643814 102.59600583 142.44942216 103.375 141.26171875 C103.80546631 140.62903076 104.23593262 139.99634277 104.67944336 139.34448242 C106.01891895 137.35257398 107.32609065 135.34277411 108.625 133.32421875 C109.01768066 132.72061523 109.41036133 132.11701172 109.81494141 131.49511719 C118.1180658 118.60912252 124.69961441 104.74840408 130.1875 90.44921875 C130.43910889 89.80154541 130.69071777 89.15387207 130.94995117 88.48657227 C132.23181298 85.00881342 133.09702987 82.03397463 132.625 78.32421875 C130.25837395 75.9575927 129.29908559 75.92440788 126.0546875 75.47265625 C125.15878906 75.34375 124.26289063 75.21484375 123.33984375 75.08203125 C122.40269531 74.95570313 121.46554687 74.829375 120.5 74.69921875 C119.55511719 74.56515625 118.61023438 74.43109375 117.63671875 74.29296875 C115.30042055 73.96258315 112.96330929 73.64000125 110.625 73.32421875 C109.08508862 69.08304617 108.26384828 65.09368369 107.625 60.63671875 C105.25527137 47.26080416 97.86399539 34.51104985 88.2421875 25.0390625 C86.625 23.32421875 86.625 23.32421875 86.625 21.32421875 C86.026875 21.07671875 85.42875 20.82921875 84.8125 20.57421875 C82.33852479 19.16051863 81.19129745 17.67366492 79.625 15.32421875 C96.24038254 21.50451992 109.9790607 33.24528488 122.625 45.32421875 C123.49125 46.13761719 124.3575 46.95101562 125.25 47.7890625 C153.69973565 75.21638577 168.25441252 113.15379146 169.12915039 152.19775391 C169.40179413 169.56204973 167.70029132 185.61110064 162.625 202.32421875 C162.35768066 203.20835449 162.09036133 204.09249023 161.81494141 205.00341797 C156.23466999 222.79246001 147.60496846 239.05799676 135.625 253.32421875 C134.73929778 254.42189794 133.85521132 255.52088261 132.97265625 256.62109375 C119.62273535 273.07587166 101.50655166 289.2554072 81.625 297.32421875 C80.965 296.99421875 80.305 296.66421875 79.625 296.32421875 C80.17027344 295.8859375 80.71554687 295.44765625 81.27734375 294.99609375 C97.97708116 280.95118639 107.23338103 261.79380976 109.625 240.32421875 C115.25532866 238.96204246 120.57494388 238.05457582 126.36328125 237.765625 C129.08828387 237.23380238 130.53923652 236.11406155 132.625 234.32421875 C132.03692814 228.29648214 130.30073839 223.08428798 128.125 217.44921875 C127.76970215 216.52665283 127.4144043 215.60408691 127.04833984 214.65356445 C120.24166365 197.4140452 110.80266475 178.5891528 97.625 165.32421875 C93.93993029 165.54916017 92.73318007 166.21554015 90.08203125 168.87890625 C89.18883894 169.97627118 88.30791612 171.0837018 87.4375 172.19921875 C86.47186813 173.38949643 85.50438355 174.57827319 84.53515625 175.765625 C84.05062988 176.36391113 83.56610352 176.96219727 83.06689453 177.57861328 C80.21172414 181.03517751 77.14796252 184.29845422 74.109375 187.59375 C72.81533337 189.015975 71.52493613 190.44256544 70.28344727 191.91088867 C64.56768527 198.64174254 58.28585113 204.81400138 52.03637695 211.04321289 C50.06019886 213.01401363 48.08944452 214.99012531 46.11914062 216.96679688 C44.84927897 218.23599797 43.57910728 219.50488896 42.30859375 220.7734375 C41.72718124 221.35687424 41.14576874 221.94031097 40.54673767 222.54142761 C37.87342825 225.19962336 35.19133645 227.71427057 32.24243164 230.06567383 C29.39657301 232.05920793 29.39657301 232.05920793 29.0625 235.01171875 C29.43699284 237.68809379 29.43699284 237.68809379 32.625 239.32421875 C35.10039609 239.76770306 37.50587804 240.11564399 40 240.38671875 C41.05670898 240.51022705 41.05670898 240.51022705 42.13476562 240.63623047 C48.61751628 241.37290668 55.11455189 241.9005937 61.625 242.32421875 C62.00493314 249.00018683 60.74682853 254.22475113 58.5625 260.51171875 C58.24522949 261.43645996 57.92795898 262.36120117 57.60107422 263.31396484 C53.26578121 275.58265118 47.34912311 285.59522282 38.625 295.32421875 C37.99980469 296.05511719 37.37460938 296.78601563 36.73046875 297.5390625 C29.38190725 305.59927417 18.75061135 311.44792733 7.8359375 312.625 C-6.86272258 312.68573826 -21.64501016 310.62723449 -35.375 305.32421875 C-36.90640625 304.83888672 -36.90640625 304.83888672 -38.46875 304.34375 C-60.57471475 297.19030113 -79.68361128 284.27965559 -96.375 268.32421875 C-97.09558594 267.66679687 -97.81617188 267.009375 -98.55859375 266.33203125 C-127.32453178 239.15565486 -142.40087694 199.23368194 -143.6875 160.23828125 C-143.83836053 150.29117438 -143.55804298 141.04395774 -141.375 131.32421875 C-141.13986454 130.00954047 -140.91392184 128.69316928 -140.69921875 127.375 C-134.03245015 88.23329724 -110.56345757 52.33404233 -78.375 29.32421875 C-69.43537769 23.03947133 -60.08270238 17.82159473 -50.19580078 13.17919922 C-48.60161177 12.43062723 -47.01676049 11.66223482 -45.43359375 10.890625 C-31.28568143 4.43048296 -15.28291703 2.08631926 0 0 Z " fill="#FDFDFD" transform="translate(196.375,54.67578125)"/>
<path d="M0 0 C0.99 0 1.98 0 3 0 C2.67 1.32 2.34 2.64 2 4 C2.66 4 3.32 4 4 4 C4.33 3.34 4.66 2.68 5 2 C6.32 2.33 7.64 2.66 9 3 C5.42463066 7.07934427 1.13944001 9.50544682 -3.5 12.1875 C-4.25925781 12.63802734 -5.01851563 13.08855469 -5.80078125 13.55273438 C-9.19834151 15.53712377 -12.11883063 17.18925963 -16 18 C-15.360625 17.38125 -14.72125 16.7625 -14.0625 16.125 C-9.04616332 11.10866332 -3.93890352 5.90835528 0 0 Z " fill="#EFEFEF" transform="translate(292,334)"/>
<path d="M0 0 C4.28083414 1.57072431 8.18052713 3.67461819 12.125 5.9375 C12.74503906 6.28490234 13.36507813 6.63230469 14.00390625 6.99023438 C17.02674973 8.71618049 19.71807509 10.3433064 22 13 C19 15 19 15 16 15 C15.67 15.66 15.34 16.32 15 17 C13.66072279 15.54712339 12.32873153 14.08752741 11 12.625 C10.2575 11.81289062 9.515 11.00078125 8.75 10.1640625 C7 8 7 8 7 6 C6.401875 5.7525 5.80375 5.505 5.1875 5.25 C2.71352479 3.83629988 1.56629745 2.34944617 0 0 Z " fill="#E8E8E8" transform="translate(276,70)"/>
<path d="M0 0 C0.33 0.66 0.66 1.32 1 2 C1.66 2.33 2.32 2.66 3 3 C2.34 4.32 1.68 5.64 1 7 C0.67 6.01 0.34 5.02 0 4 C-0.66 4.66 -1.32 5.32 -2 6 C-2 6.66 -2 7.32 -2 8 C-4.5 9.625 -4.5 9.625 -7 11 C-7 7.22089522 -6.00296038 6.53893899 -3.5 3.8125 C-2.8503125 3.09707031 -2.200625 2.38164062 -1.53125 1.64453125 C-1.0259375 1.10183594 -0.520625 0.55914062 0 0 Z M-9 10 C-8.34 11.32 -7.68 12.64 -7 14 C-8.00340356 17.01021068 -9.67503273 18.88639339 -12 21 C-12.99 20.67 -13.98 20.34 -15 20 C-14.67 19.01 -14.34 18.02 -14 17 C-14.66 16.67 -15.32 16.34 -16 16 C-13.69 14.02 -11.38 12.04 -9 10 Z " fill="#0E0E0E" transform="translate(329,311)"/>
<path d="M0 0 C0.66 0.33 1.32 0.66 2 1 C1.34 2.32 0.68 3.64 0 5 C1.32 5.33 2.64 5.66 4 6 C4.061875 6.8353125 4.061875 6.8353125 4.125 7.6875 C5.79290072 12.09552334 9.75678429 14.432445 13.875 16.3125 C14.57625 16.539375 15.2775 16.76625 16 17 C16 18.98 16 20.96 16 23 C14.66102417 22.04956626 13.32894573 21.08940853 12 20.125 C11.2575 19.59132812 10.515 19.05765625 9.75 18.5078125 C9.1725 18.01023438 8.595 17.51265625 8 17 C8 16.34 8 15.68 8 15 C7.195625 14.690625 7.195625 14.690625 6.375 14.375 C3.02570947 12.43593706 0.34055635 10.09287804 -2 7 C-2.5 4.25 -2.5 4.25 -2 2 C-1.34 1.34 -0.68 0.68 0 0 Z " fill="#141414" transform="translate(227,128)"/>
<path d="M0 0 C1.65 0.33 3.3 0.66 5 1 C4.40072174 4.35595828 3.15377564 6.37801226 1 9 C0.34 8.67 -0.32 8.34 -1 8 C-4.51716303 8 -5.37121748 8.82445585 -8 11 C-6.63629701 8.00779732 -5.05091917 5.70973471 -2.875 3.25 C-2.33617187 2.63640625 -1.79734375 2.0228125 -1.2421875 1.390625 C-0.62730469 0.70226562 -0.62730469 0.70226562 0 0 Z " fill="#171717" transform="translate(290,219)"/>
<path d="M0 0 C0.66 0.33 1.32 0.66 2 1 C2 1.66 2 2.32 2 3 C2.66 3 3.32 3 4 3 C4 3.66 4 4.32 4 5 C1.88002166 6.19733988 -0.24513676 7.38298713 -2.375 8.5625 C-2.97828125 8.90474609 -3.5815625 9.24699219 -4.203125 9.59960938 C-5.76978241 10.46127095 -7.38290862 11.23718183 -9 12 C-9.66 11.67 -10.32 11.34 -11 11 C-10.37351562 10.45730469 -9.74703125 9.91460937 -9.1015625 9.35546875 C-8.28429687 8.64003906 -7.46703125 7.92460937 -6.625 7.1875 C-5.40683594 6.12595703 -5.40683594 6.12595703 -4.1640625 5.04296875 C-1.83816812 3.00018747 -1.83816812 3.00018747 0 0 Z " fill="#DEDEDE" transform="translate(287,340)"/>
<path d="M0 0 C3.65316671 1.24976756 4.78065836 1.67098753 7 5 C6.625 7.1875 6.625 7.1875 6 9 C5.01 9 4.02 9 3 9 C0.75 6.1875 0.75 6.1875 -1 3 C-0.67 2.01 -0.34 1.02 0 0 Z " fill="#0D0D0D" transform="translate(331,109)"/>
<path d="M0 0 C2.475 0.99 2.475 0.99 5 2 C4.07347299 3.17539996 3.13336613 4.34010577 2.1875 5.5 C1.66542969 6.1496875 1.14335937 6.799375 0.60546875 7.46875 C-1 9 -1 9 -4 9 C-3.38461538 3.46153846 -3.38461538 3.46153846 -1.4375 1.125 C-0.963125 0.75375 -0.48875 0.3825 0 0 Z " fill="#171717" transform="translate(281,340)"/>
<path d="M0 0 C2 1 2 1 2 1 Z M-1 1 C-0.01 1.33 0.98 1.66 2 2 C1.34 3.32 0.68 4.64 0 6 C-0.33 5.67 -0.66 5.34 -1 5 C-1.33 5.66 -1.66 6.32 -2 7 C-1.34 7.33 -0.68 7.66 0 8 C-1.32 8.99 -2.64 9.98 -4 11 C-6 10 -6 10 -8 8 C-5.69 5.69 -3.38 3.38 -1 1 Z " fill="#0D0D0D" transform="translate(265,248)"/>
<path d="M0 0 C1.14926266 0.95421808 2.29430541 1.91352045 3.4375 2.875 C4.07558594 3.40867187 4.71367188 3.94234375 5.37109375 4.4921875 C7 6 7 6 8 8 C7.34 8 6.68 8 6 8 C5.67 8.66 5.34 9.32 5 10 C3.35 9.67 1.7 9.34 0 9 C0 6 0 3 0 0 Z " fill="#0A0A0A" transform="translate(92,315)"/>
<path d="M0 0 C4.2742558 1.5830577 6.26531794 4.50568404 9 8 C8.01 8.99 7.02 9.98 6 11 C5.34 10.67 4.68 10.34 4 10 C3.87625 9.360625 3.7525 8.72125 3.625 8.0625 C3.19060573 5.80148727 3.19060573 5.80148727 0.9375 4.75 C0.298125 4.5025 -0.34125 4.255 -1 4 C-0.67 2.68 -0.34 1.36 0 0 Z " fill="#0D0D0D" transform="translate(282,78)"/>
<path d="M0 0 C1.305239 3.91571701 0.32239848 5.03892997 -1.4375 8.6875 C-1.91058594 9.68136719 -2.38367188 10.67523438 -2.87109375 11.69921875 C-3.42990234 12.83810547 -3.42990234 12.83810547 -4 14 C-6 13 -6 13 -6.6875 11.0625 C-7 9 -7 9 -6 7 C-5.34 7 -4.68 7 -4 7 C-4 6.34 -4 5.68 -4 5 C-3.34 5 -2.68 5 -2 5 C-1.34 3.35 -0.68 1.7 0 0 Z " fill="#F2F2F2" transform="translate(252,318)"/>
<path d="M0 0 C0.556875 0.185625 1.11375 0.37125 1.6875 0.5625 C4.05608681 1.16536239 4.05608681 1.16536239 6.625 0.4375 C7.40875 0.293125 8.1925 0.14875 9 0 C11 2 11 2 11 4 C10.01 4 9.02 4 8 4 C7.34 4.66 6.68 5.32 6 6 C1.125 3.375 1.125 3.375 0 0 Z " fill="#EFEFEF" transform="translate(129,343)"/>
<path d="M0 0 C1.32 0.33 2.64 0.66 4 1 C1.525 5.455 1.525 5.455 -1 10 C-3 8 -3 8 -3.125 5.375 C-3.08375 4.59125 -3.0425 3.8075 -3 3 C-2.34 3 -1.68 3 -1 3 C-0.67 2.01 -0.34 1.02 0 0 Z " fill="#ECECEC" transform="translate(345,281)"/>
<path d="M0 0 C0.66 0 1.32 0 2 0 C2 0.66 2 1.32 2 2 C2.5775 1.814375 3.155 1.62875 3.75 1.4375 C6.20692525 0.95976454 7.64397534 1.24270636 10 2 C10 2.66 10 3.32 10 4 C8.02 4.99 6.04 5.98 4 7 C2.35 5.02 0.7 3.04 -1 1 C-0.67 0.67 -0.34 0.34 0 0 Z " fill="#191919" transform="translate(263,170)"/>
<path d="M0 0 C1.33855056 0.78281305 2.67073644 1.57651877 4 2.375 C5.11375 3.03628906 5.11375 3.03628906 6.25 3.7109375 C6.8275 4.13632812 7.405 4.56171875 8 5 C8 5.66 8 6.32 8 7 C7.34 7 6.68 7 6 7 C6 7.66 6 8.32 6 9 C5.34 9 4.68 9 4 9 C4 8.34 4 7.68 4 7 C3.34 6.67 2.68 6.34 2 6 C0.9805881 5.01979625 -0.02246356 4.02196992 -1 3 C-0.67 2.01 -0.34 1.02 0 0 Z " fill="#121212" transform="translate(117,337)"/>
<path d="M0 0 C0.66 0.33 1.32 0.66 2 1 C-0.64 4.3 -3.28 7.6 -6 11 C-6.66 10.67 -7.32 10.34 -8 10 C-7.690625 9.236875 -7.38125 8.47375 -7.0625 7.6875 C-6.32106407 5.81210323 -5.63771783 3.91315348 -5 2 C-3 1.375 -3 1.375 -1 1 C-0.67 0.67 -0.34 0.34 0 0 Z " fill="#E7E7E7" transform="translate(287,220)"/>
<path d="M0 0 C2.37948772 0.17625835 3.70225849 0.69719773 5.37890625 2.40234375 C6.62115486 3.90649092 7.81376056 5.45129851 9 7 C8.01 7.33 7.02 7.66 6 8 C2.8125 6.3125 2.8125 6.3125 0 4 C0 2.68 0 1.36 0 0 Z " fill="#EDEDED" transform="translate(237,148)"/>
<path d="M0 0 C2 1 2 1 3.1875 3.875 C4 7 4 7 3 10 C-0.16115776 8.63016497 -0.9927092 8.0109362 -3 5 C-1.68 4.67 -0.36 4.34 1 4 C0.67 2.68 0.34 1.36 0 0 Z " fill="#EDEDED" transform="translate(223,287)"/>
<path d="M0 0 C3.16115776 1.36983503 3.9927092 1.9890638 6 5 C3.525 6.485 3.525 6.485 1 8 C0.34 5.69 -0.32 3.38 -1 1 C-0.67 0.67 -0.34 0.34 0 0 Z " fill="#101010" transform="translate(85,308)"/>
<path d="M0 0 C0.99 0 1.98 0 3 0 C3.12375 0.61875 3.2475 1.2375 3.375 1.875 C3.87197356 4.19120832 3.87197356 4.19120832 6 6 C5.01 6.99 4.02 7.98 3 9 C0.9375 6.75 0.9375 6.75 -1 4 C-0.75 1.6875 -0.75 1.6875 0 0 Z " fill="#0C0C0C" transform="translate(253,156)"/>
<path d="M0 0 C4.30764815 1.56641751 8.06171464 3.68336156 12 6 C10.02 6.99 10.02 6.99 8 8 C7.67 7.34 7.34 6.68 7 6 C6.38125 5.71125 5.7625 5.4225 5.125 5.125 C2.63203665 3.80519587 1.54852219 2.32278328 0 0 Z " fill="#CDCDCD" transform="translate(276,70)"/>
<path d="M0 0 C0.66 0.33 1.32 0.66 2 1 C1.67 1.99 1.34 2.98 1 4 C0.01 4.33 -0.98 4.66 -2 5 C-2 5.66 -2 6.32 -2 7 C-2.99 7.33 -3.98 7.66 -5 8 C-5.66 7.67 -6.32 7.34 -7 7 C-7 6.34 -7 5.68 -7 5 C-5.46875 3.7109375 -5.46875 3.7109375 -3.5 2.375 C-2.8503125 1.92898438 -2.200625 1.48296875 -1.53125 1.0234375 C-1.0259375 0.68570312 -0.520625 0.34796875 0 0 Z " fill="#161616" transform="translate(302,336)"/>
<path d="M0 0 C1.17219543 0.78345715 2.33763668 1.57702836 3.5 2.375 C4.47453125 3.03628906 4.47453125 3.03628906 5.46875 3.7109375 C5.9740625 4.13632813 6.479375 4.56171875 7 5 C7 5.66 7 6.32 7 7 C7.66 7.33 8.32 7.66 9 8 C6.125 8.625 6.125 8.625 3 9 C2.34 8.34 1.68 7.68 1 7 C1.66 6.34 2.32 5.68 3 5 C2.2575 4.319375 2.2575 4.319375 1.5 3.625 C0 2 0 2 0 0 Z " fill="#EDEDED" transform="translate(228,138)"/>
<path d="M0 0 C0.66 0.33 1.32 0.66 2 1 C1.34 2.65 0.68 4.3 0 6 C-1.32 6 -2.64 6 -4 6 C-4.33 7.32 -4.66 8.64 -5 10 C-5.3125 7.8125 -5.3125 7.8125 -5 5 C-2.5 2.1875 -2.5 2.1875 0 0 Z " fill="#1E1E1E" transform="translate(230,282)"/>
<path d="M0 0 C1.65 0.99 3.3 1.98 5 3 C4.01 3.99 3.02 4.98 2 6 C0.68 5.34 -0.64 4.68 -2 4 C-1.34 2.68 -0.68 1.36 0 0 Z " fill="#111111" transform="translate(111,333)"/>
<path d="M0 0 C0.66 0 1.32 0 2 0 C2 0.66 2 1.32 2 2 C3.32 2.33 4.64 2.66 6 3 C6.33 4.32 6.66 5.64 7 7 C6.01 7.33 5.02 7.66 4 8 C2.68 5.36 1.36 2.72 0 0 Z " fill="#E0E0E0" transform="translate(309,240)"/>
<path d="M0 0 C0.99 0.33 1.98 0.66 3 1 C2.525625 1.763125 2.05125 2.52625 1.5625 3.3125 C-0.10106097 5.96410548 -0.10106097 5.96410548 -1 9 C-1.99 8.67 -2.98 8.34 -4 8 C-2.68 5.36 -1.36 2.72 0 0 Z " fill="#E9E9E9" transform="translate(321,159)"/>
<path d="M0 0 C1.65 1.65 3.3 3.3 5 5 C4.01 5.99 3.02 6.98 2 8 C0.4375 6.8125 0.4375 6.8125 -1 5 C-0.6875 2.3125 -0.6875 2.3125 0 0 Z " fill="#101010" transform="translate(246,149)"/>
<path d="M0 0 C1.32 0.66 2.64 1.32 4 2 C1.44008376 4.01136276 -1.04590299 5.62845496 -4 7 C-4 6.01 -4 5.02 -4 4 C-3.34 4 -2.68 4 -2 4 C-1.34 2.68 -0.68 1.36 0 0 Z " fill="#151515" transform="translate(130,72)"/>
<path d="M0 0 C0.99 0.99 1.98 1.98 3 3 C0.4345406 5.5654594 -1.47686668 5.54046087 -5 6 C-3.35 4.02 -1.7 2.04 0 0 Z " fill="#121212" transform="translate(233,351)"/>
<path d="M0 0 C1.9375 0.375 1.9375 0.375 4 1 C4.33 1.66 4.66 2.32 5 3 C4.01 4.32 3.02 5.64 2 7 C0.4375 5.75 0.4375 5.75 -1 4 C-0.6875 1.8125 -0.6875 1.8125 0 0 Z " fill="#0F0F0F" transform="translate(312,166)"/>
<path d="M0 0 C1.65 1.65 3.3 3.3 5 5 C3.02 5.99 3.02 5.99 1 7 C1 6.01 1 5.02 1 4 C0.01 3.67 -0.98 3.34 -2 3 C-1 1 -1 1 0 0 Z " fill="#EDEDED" transform="translate(247,156)"/>
<path d="M0 0 C4.41889613 1.35021826 6.34345343 3.26115668 9 7 C6 7 6 7 4.39453125 5.46875 C3.87246094 4.8190625 3.35039062 4.169375 2.8125 3.5 C2.28269531 2.8503125 1.75289063 2.200625 1.20703125 1.53125 C0.80871094 1.0259375 0.41039062 0.520625 0 0 Z " fill="#212121" transform="translate(320,101)"/>
<path d="M0 0 C0.33 0.66 0.66 1.32 1 2 C1.66 2.33 2.32 2.66 3 3 C2.34 4.32 1.68 5.64 1 7 C0.67 6.01 0.34 5.02 0 4 C-1.98 4.99 -1.98 4.99 -4 6 C-2.84826645 3.53199953 -1.95216435 1.95216435 0 0 Z " fill="#171717" transform="translate(329,311)"/>
<path d="M0 0 C1.32 1.32 2.64 2.64 4 4 C3.34 4 2.68 4 2 4 C1.67 4.66 1.34 5.32 1 6 C0.01 5.67 -0.98 5.34 -2 5 C-1.125 1.125 -1.125 1.125 0 0 Z " fill="#131313" transform="translate(96,319)"/>
<path d="M0 0 C0 0.66 0 1.32 0 2 C-2.5 3.625 -2.5 3.625 -5 5 C-5 4.01 -5 3.02 -5 2 C-2 0 -2 0 0 0 Z M-7 4 C-6.67 4.99 -6.34 5.98 -6 7 C-6.99 6.67 -7.98 6.34 -9 6 C-8.34 5.34 -7.68 4.68 -7 4 Z " fill="#080808" transform="translate(327,317)"/>
<path d="M0 0 C0 3.69418201 -1.28179295 5.77836178 -3 9 C-3.66 9 -4.32 9 -5 9 C-5.33 8.01 -5.66 7.02 -6 6 C-4.02 4.02 -2.04 2.04 0 0 Z " fill="#222222" transform="translate(273,239)"/>
<path d="M0 0 C0.66 0.66 1.32 1.32 2 2 C1.01 3.98 0.02 5.96 -1 8 C-1.99 7.01 -2.98 6.02 -4 5 C-2.68 3.35 -1.36 1.7 0 0 Z " fill="#171717" transform="translate(72,132)"/>
<path d="M0 0 C4.5 2.25 4.5 2.25 6 6 C5.34 6.66 4.68 7.32 4 8 C2.68 5.36 1.36 2.72 0 0 Z " fill="#0C0C0C" transform="translate(342,128)"/>
<path d="M0 0 C1.0625 1.8125 1.0625 1.8125 2 4 C1.67 4.99 1.34 5.98 1 7 C-0.65 6.01 -2.3 5.02 -4 4 C-2.68 2.68 -1.36 1.36 0 0 Z " fill="#EDEDED" transform="translate(119,332)"/>
<path d="M0 0 C1.39195915 4.17587745 -0.17676781 6.13474776 -2 10 C-4 7 -4 7 -4 5 C-3.34 5 -2.68 5 -2 5 C-1.34 3.35 -0.68 1.7 0 0 Z " fill="#EAEAEA" transform="translate(252,318)"/>
<path d="M0 0 C1 2 1 2 0.375 3.9375 C-1.35198322 6.52797483 -3.2734275 7.56496184 -6 9 C-4.47291037 5.56404834 -2.40072955 2.88087546 0 0 Z " fill="#242424" transform="translate(336,302)"/>
<path d="M0 0 C1.32 0 2.64 0 4 0 C3.67 2.64 3.34 5.28 3 8 C1.0549 5.08235 0.54723683 3.37462715 0 0 Z " fill="#1E1E1E" transform="translate(301,304)"/>
<path d="M0 0 C0.66 0.33 1.32 0.66 2 1 C2.625 4.0625 2.625 4.0625 3 7 C2.01 7 1.02 7 0 7 C-0.66 5.35 -1.32 3.7 -2 2 C-1.34 1.34 -0.68 0.68 0 0 Z " fill="#E7E7E7" transform="translate(80,293)"/>
<path d="M0 0 C1.65 0 3.3 0 5 0 C5.66 1.32 6.32 2.64 7 4 C5.68 4 4.36 4 3 4 C1.25 2 1.25 2 0 0 Z " fill="#DFDFDF" transform="translate(103,325)"/>
<path d="M0 0 C1.5625 1.8125 1.5625 1.8125 3 4 C2.67 4.99 2.34 5.98 2 7 C1.01 7 0.02 7 -1 7 C-0.67 4.69 -0.34 2.38 0 0 Z " fill="#D8D8D8" transform="translate(61,160)"/>
<path d="M0 0 C1.32 0.66 2.64 1.32 4 2 C3.67 2.99 3.34 3.98 3 5 C1.0625 4.625 1.0625 4.625 -1 4 C-1.33 3.34 -1.66 2.68 -2 2 C-1.34 2 -0.68 2 0 2 C0 1.34 0 0.68 0 0 Z " fill="#080808" transform="translate(232,134)"/>
<path d="M0 0 C2.3431213 0.25561323 4.67843403 0.59270772 7 1 C7.33 1.66 7.66 2.32 8 3 C7.01 4.485 7.01 4.485 6 6 C3.97945196 4.35830472 1.97956942 2.69088222 0 1 C0 0.67 0 0.34 0 0 Z " fill="#1B1B1B" transform="translate(308,90)"/>
</svg>
